<?xml version="1.0" encoding="utf-8"?>
<!-- Generator: Adobe Illustrator 24.0.1, SVG Export Plug-In . SVG Version: 6.00 Build 0)  -->
<svg version="1.1" id="Layer_1" xmlns="http://www.w3.org/2000/svg" xmlns:xlink="http://www.w3.org/1999/xlink" x="0px" y="0px"
	 viewBox="0 0 893.5 1581.5" style="enable-background:new 0 0 893.5 1581.5;" xml:space="preserve">
<style type="text/css">
	.st0{clip-path:url(#Rectangle_29_2_);}
	.st1{fill:#5C7072;}
	.st2{fill:#405051;}
	.st3{fill:#EFCEB9;}
	.st4{fill:#EED7DE;}
	.st5{fill:#E5C3D7;}
	.st6{fill:#E7CFBF;}
	.st7{fill:#BCA493;}
	.st8{fill:#2B2837;}
	.st9{fill:#734F46;}
	.st10{fill:#844230;}
	.st11{fill:#662E33;}
	.st12{fill:#E26564;}
	.st13{fill:#F7E3DB;}
	.st14{fill:#9D4B30;}
	.st15{fill:#3C394C;}
	.st16{fill:#DBC1CF;}
	.st17{fill:#C9A3B0;}
	.st18{fill:#CEB3A1;}
	.st19{opacity:0.73;clip-path:url(#Rectangle_29_2_);fill:url(#Rectangle_29_3_);enable-background:new    ;}
	.st20{fill-rule:evenodd;clip-rule:evenodd;fill:#6E6E6E;}
	.st21{fill-rule:evenodd;clip-rule:evenodd;fill:#36A834;}
</style>
<title>Workshop</title>
<image style="display:none;overflow:visible;" width="680" height="1206" xlink:href="../Desktop/new phone .png"  transform="matrix(1.312 0 0 1.312 -1091.5409 10.2531)">
</image>
<g>
	<defs>
		<path id="Rectangle_29_1_" d="M893.5,14.5V1570c0,8-6,11.5-13.3,11.5H9.6c-7.4,0-13.3-6.5-13.3-14.5V14.5c0-8,6-14.5,13.3-14.5
			h870.6C887.5,0,893.5,6.5,893.5,14.5z"/>
	</defs>
	<clipPath id="Rectangle_29_2_">
		<use xlink:href="#Rectangle_29_1_"  style="overflow:visible;"/>
	</clipPath>
	<g class="st0">
		<g>
			<path class="st1" d="M594.8,1559.2c0,0,5.1,182.4,42,214.3l-657.8-0.2c8-24.5,65.2-326.7,110.2-362.7l45-36L594.8,1559.2z"/>
			<path class="st2" d="M493.2,1512.6c0,0-83.8,11.7-167-30.9s-169.9,8.2-67.6,32.7s281.3,40.8,212.3,44.8s-298.2-50.1-248-29.6
				s199.7,74.6,153.9,74.6s-291.3-37.3-205.8,0s121,49.6,121,49.6l-139,67.2l126.6,40l357.1,12.5c0,0-22.6-27.8-42-131.1
				c-2.2-12-14.9-41.5-7.5-62.3s20.3-28.1-11.8-45.9S493.2,1512.6,493.2,1512.6z"/>
			<path class="st3" d="M211.2,1441.3c0,0,187.2,76,282,71.3s45.3-179.8-86.4-179.8S211.2,1441.3,211.2,1441.3z"/>
			<path class="st4" d="M303.1,673.9c0,0-4.9,6.4-8.9,4.9s-12.3,15.6-26.7,6.8s-34.3-33.1-56.1-32.8s-56.4,17.9-65,17.7
				s-33.7-17.2-42.9-8.2S6.9,714.5,3.9,754.9s-8.4,33.5-8.9,53.7s-2.4,53.2,8.9,64.5s53.7,45.8,90.7,59.6s65.5,74.9,65.5,74.9
				s-2.5,29.1-3,49.8s23,132.2,25.3,139.8s-41.7,31.8-43.2,49.3s-18.9,44-6.1,77.3s-29.6,28.8-31.1,50.8s65.9,65.2,109.2,66.7
				s139.5-28,160-19s-28,17.6,6.8,19s28-32.5,51.5,0s56.1,59.8,63.7,71.2s54.6,56.1,86.4,44.7s11.4-22.7,31.1-50.8
				s30.3-72,30.3-83.4s49.3-146.3,49.3-150.1s39.5-122.7,43.5-145.4s48.1-105.6,48.8-124.3s-19.4-21.4,8-38.7s135-54,156.4-66.7
				s68.1-72.1,62.8-151.6s-127.3-56.8-148.9-63.5s-13.5-12-29.5-12s-67.7-15.2-80-15.2s-32.1-1.3-37.1,7.2s-5.3,32.4-12.9,27.1
				s-35.2-24.2-42.8-24.2s-20.5-1.9-31.2,9.8s-265.1-16.8-265.1-16.8L303.1,673.9z"/>
			<path class="st5" d="M183.8,731.3c0,0,66.2,20.5,66.8,57.1s-55.1,61.9-55.1,111.8c0,49.9-97.5,33.6-98.8,22s-75.3-21.7-81.4-59.1
				s-17.8-93.5,0-105.1S183.8,731.3,183.8,731.3z"/>
			<path class="st5" d="M335.7,730.3c0,0,145,89.5,184.9,73.4s76.3-68.6,76.3-68.6l-48.6-51.3l-126.9,25.6l-85.7-23.8l-41.5-6.8
				L335.7,730.3z"/>
			<path class="st6" d="M895.8,712.4c-12.8-20-55.6-41.8-67.2-48.5s-133-72.5-163.7-76.5s-61.1-14.2-61.1-14.2s-68.7-20.1-68.7-38.3
				s-32.7-89.8-25-96.5s28.7-13.7,50.8-13s32.6,3.4,37.7,3.4s6.8-2.5,13.2-3.4s42.1,14.7,52,15.3s20.4,18.3,28.9,24.1
				s17.3,30.6,26.2,38.7s38.9,29.9,55.1,32.6s172.8,48.1,207,73.6s72.4,39.3,93.9,75.5s-44.4,104.1-73.5,121.4s-106.6,46.9-135.2,53
				s-19.4,5.6-19.4,5.6s-19.4,0,3.6-27.5s4.6-32.1,13.3-63.3s28.6-55.5,28.6-55.5S898.8,717.1,895.8,712.4z"/>
			<path class="st7" d="M861.3,796.9c0,0-5.4,34.7,22.7,34.7s118.7-38.3,120.6-54.2s29.9-42.3,29.9-42.3s-14-17.2-12.2-25.8
				s8.4-4.8,19.6-6.7s8.3-31.2,20.6-24.3s17,37.5,8.4,52.3s-51.5,70.6-94.1,88.5s-113.3,58.6-130,46.1c-14.9-11.1,3.6-27.5,3.6-27.5
				L861.3,796.9z"/>
			<path class="st7" d="M589.2,517.4c0,0-4.3-1.8-10.8-11.4c-6.5-9.5-14.1-16.9-16-15.7s-2.5-2.4-3.1-6.9s-14.1-18.9-16.9-18.9
				s-12.6-8.3,7.1-8.3s12.6-14.4,22.1-14.4s-8.9,4.6-2.8,11.4s20,5.8,24.9,5.8s-2.2,8,6.1,4.6s4.6-12.6,9.8-12s6.8,9.5,17.8,3.1
				s28.9-16.3,18.1-7.7s-26.4,7.1-28,15.4s-1.2,10.8,7.4,11s16.9-1.3,20-4.2s33.2-31.5,19.3-14.3s-25.4,22.4-41.7,30.6
				s-16.6,10-8.3,8.8s43.9-14.8,37.2-8.8s-52.8,11.8-59.3,17.7s-16,5.5-5.5,0s19-3.4,19-10.1s-3.1-7.6-12-9.7s-11.4-5.7-17.8-5.7
				s-12.6,8.6-8.6,10.4S583.4,517.4,589.2,517.4z"/>
			<path class="st8" d="M607.6,577.8c14.2,19.5,22.1,75.5,22.6,93.7c1,40.1,21.4,156.6,20.7,178.6s2,43.5,27.3,68.8
				s55.8,77.2,53.9,115.5c-2,38.3-20.1,65.5-7.8,61.6s24.7-9,45.4,0.4s-40.2,7.4-52.6,23s-11.7-14.3-32.5-20.8s-12.3,0,0-44.1
				c12.3-44.1,5.2-83.7-8.4-97.4s-38.3-42.2-46.7-83.7s-31.2-41.5-37-71.4s-17.5-95.5-24.3-97.7s-19.9-20.6-19.9-20.6
				s-18.1,13.3-39.7-1.1s-92.1-93-58.2-118.3s79-80.8,79-80.8s14.5,35.7,22.8,45.6S596.8,562.8,607.6,577.8z"/>
			<path class="st6" d="M125.2,670.7c0,0,34,27,37,43s17,38,8,76s-7,57-7,57s-27,40-38,39s-66-57-71-60s-23-42-40-75s-28-49-27-80
				s3-53,22-91s146-175.1,159-198.5s26-48.4,36-56.4s30-24,43-37s71.7-20.6,89.3-14.3s63.6-4.7-14.4,41.3S221,468.4,221,468.4
				s-23.8-2.6-35.8,6.4s-51,108-51,136.9S125.2,670.7,125.2,670.7z"/>
			<path class="st3" d="M227.7,479.4c0,0,8.1,43.7,6.4,56.8s-7.4,34.4,6.5,54.8s37.8,53,49.3,64.6s14.2,22.4,18,29.9
				s20,23.4,36,23.8s16.6-0.3,22.7,1.7s23.1,15.6,55,31.6s35.3,21.4,49.9,21.7s54.6,0.7,59.4-4.1s24.4-27.8,20.7-61.1l-3.4-15.3
				c0,0-35.3,8.5-49.6-23.8s-24.3-77-18.9-89.1s8-14.7,8-14.7s10,6.9,17.9,0.7s21.9-36,23.2-41.6c1.3-5.6,2.6-21.4,5.3-23.7
				s5.7-9.6,2.5-16.7s-11.4-18.1-21.7-16.9s-29,5-29,5L388,398.2l-117.3-27.8l-34.9,14.7C235.8,385.1,219,451.5,227.7,479.4z"/>
			<path class="st7" d="M286.6,530.7c0,0,9.1,10.2,6.1,23.3s-2.1,18.5-8.7,30.3c-1.6,2.8,0.1,2.3-2,5.6s1,17.3,8.2,25.8
				s8.1,15.2,8.1,15.2s11.5,36.8,19.4,37.1s24.2,1.8,32.5,0.5s18.9,11.5,6.5,11.5s-32-5.3-32.2,0s6.8,22.2,23.7,22.2
				s13.7,7.3,4.8,7.2s-29.7-1.5-38.7-15.7s-13.5-26.4-19.9-33.3s-36-44.2-40.9-51.1s-20.9-19.3-21.1-39c-0.1-12.2,0.5-24.4,1.9-36.5
				c0,0-3.3-35.1-4.5-42.4s-6.8-45.6-6.8-45.6l10.5-44.2l28.7-11.2c0,0,44.2-4,38.4,6s-23.7-10-42.8,17.3s-19.5,41.8-19.5,52.3
				s7.4,39.8,12.9,40.2C256.5,506.5,286.6,530.7,286.6,530.7z"/>
			<path class="st7" d="M218,401.6c0,0,1.8,23.8-16.1,19.5s-20.9,9.4-18.8,31.6s-8.5,34.1-18.8,48.6c-10.2,14.5-44.4,65.7-45.2,93
				s6.1,76.4,6.1,76.4s-4.4,9.8,3.2,23.4s40,41,40,41l-6.3-21.4c0,0-9.2-23.5-33.9-40.5c0,0-2.8-3-1.3-9c1.4-6,6.8-35.8,7.4-55.6
				s13.7-53.2,13.7-53.2l24.2-59.7c0,0,8.3-27.7,32.1-27.2s16.6-0.1,16.6-0.1S227,407.5,218,401.6z"/>
			<path class="st8" d="M227.7,479.4c0,0-17-21.3-14.2-47.2s14.2-92.1,26.9-104.9s70.9-34.5,87.4-46.8s38.7-38.3,84.1-22.7
				s106.3,55.7,108.2,98.7s9.1,54.5,15.7,63s-21.4,34.3-29,41.8s-8,19.8-6.1,24.1s-25,31.2-34,22.2c-9-9-1-26.5-23.6-32.1
				s-30.7-24.6-47.2-35.9s-51.5-39.2-81.7-40.6s-29.3-9.9-42.5-7.6s-28.8,7.6-36.4,34.5S227.7,479.4,227.7,479.4z"/>
			<path class="st7" d="M173,759.5c0,0-28.1,55.4-35.8,37s1-54.3-20.4-67.9s-48.5-1-59.2-7.8s-58.3-20.3-53.3,0s50,104.8,50,104.8
				s59.6,66.4,71,60s38-39,38-39s1.6-33.5,8-61.7S173,759.5,173,759.5z"/>
			<path class="st7" d="M53.9,656.5c0,0-8.7,12.5-14.1,10.4s-17.4-15.5-17.4-5.1s11.2,39.9,15.7,38.2s26.9-24.4,27.3-32.3
				S61.4,655.2,53.9,656.5z"/>
			<path class="st9" d="M496.2,530.2c0,0-3.1,0.5,0-3.3s6.3-9.4,2.1-14.6c-4.2-5.2-5.2-22.8,3.5-24.7s24.8-4.8,27.3,3.5
				s2.6,15-4.5,24.5c-7,9.4,5.2-11.8,1.9-15.5s-24.5-8-19.5-5.9s11.9,10.8,5.7,17.9c-6.2,7.1-10.9,12.9-10.7,15.3
				S496.2,530.2,496.2,530.2z"/>
			<path class="st10" d="M336.8,498.9c0,0-24.7,8.6-21.2,16.7c3.5,8.1,19.7-8.6,29.8-12.1s27.8-9.6,45.4-7.6s26.2-3,0-5.6
				S336.8,498.9,336.8,498.9z"/>
			<path class="st10" d="M232,493.2c0,0,40.8,16.1,53.5,34.7c5,7.3-8.2-0.5-21.6-11.3c-13.5-10.8-24.8-16.3-31.9-16.3
				S232,493.2,232,493.2z"/>
			<path class="st11" d="M243.6,532.2c0,0,4.3,3.1,0,6.7s-4.5,5.2-4.5,5.2c4.2,0.6,8.4,0.9,12.6,0.7c7.4-0.2,25.4-5.2,27.2-7
				s-25.6,2-29.5-0.5C247.2,535.9,245.2,534.2,243.6,532.2z"/>
			<path class="st11" d="M401.7,517.7c0,0-6.7,0-16,6.2s-26.3,9.4-35.5,6.8s-18,0.2-13.1,0.9s17.1,7.3,22.5,6.9s15.5-1.6,23.1-4.9
				S401.7,517.7,401.7,517.7z"/>
			<path class="st12" d="M300.1,626.6c0,0,73.5-14.4,85.7-15.5s-9.2,15.5-17.1,26.5s-14.5,22.8-24,23.9c-36,3.9-41.4-8-43.5-16
				S300.1,626.6,300.1,626.6z"/>
			<path class="st13" d="M303,629.4c0,0,19.5,4.2,38.8-3.8s36.1-11.7,35.1-9.1s-19.1,19.9-26.3,22.6s-17.8,6.2-24.7,9
				C310,654.4,297.7,635.4,303,629.4z"/>
			<path class="st14" d="M328.3,578.5c0,0,13.8,1.2,12.4,9.3s-19.3,20.3-25.4,23.2s-6.6,6.9-6.6,6.9s3.9-3.5,14.2-9.7
				c8.5-5.1,20.9-14,20.9-19.6S343.4,579.1,328.3,578.5z"/>
			<path class="st14" d="M292.6,554c0,0-13.2,35.3-13,46s30.3,25.2,22,21.2c-11.5-5.6-18.3-14.9-19-23S292.6,554,292.6,554z"/>
			<path class="st15" d="M353.7,276.3c0,0,113.7-9.5,141.1,62.5c27.4,72,24.8,96.3,25.8,102s-40.3,17.4-36.4,7.1s25.3,7.1,4.7-51.4
				s-121-109.1-92.5-74.3s82.2,49.8,79.1,75.9s41.7,55.3-22.9,27.7s-0.8,14.5,11.1,26.2s17.4,36.3-34.8-8.8S318.4,346.7,289,358.6
				s-55.5,5.5-41.2-9.5S353.7,276.3,353.7,276.3z"/>
			<path class="st16" d="M679.8,712.4c0,0,26.5,47.3,26.5,76.2v76.7c0,27.5,10.8,70.6,10.8,70.6l-9.7,21.2c0,0-3.5-14.6-15.9-43.6
				s-4.1-40.6-17.4-58.7s-38.7-86.5-37.1-119s14.8-84.8,14-58.7s-8.3,54.7,1.7,77.7s26.5,8.9,24.4-8.4S668.2,709.8,679.8,712.4z"/>
			<path class="st16" d="M741.1,700.2c0,0-9.1,43.2-9.1,64.2s13.2,31.3,12.4,49.3s-4.1,63,0,71.9s-20.7,39.6-20.7,39.6
				s-5.8-69.5-6.6-97.6s-3.3-69.5,0-85.2S741.1,700.2,741.1,700.2z"/>
			<path class="st16" d="M862.7,695.2c0,0-45.5,38.9-38.9,96s19.1,70.2,19.1,70.2l7.5-23.6l10.9-40.9c0,0-23.3,20.3-18.4-32.5
				S862.7,695.2,862.7,695.2z"/>
			<path class="st16" d="M984.3,815.6c0,0-12.2,67.3-52,80.4s-85.5-30.7-85.5-30.7S957.3,833.9,984.3,815.6z"/>
			<path class="st16" d="M162.2,713.7c0,0,34.4,31.9,35.4,46s12.5,37.4,0,52s-26,40.5-30.1,44.7s-13,6.8-13,6.8l8.7-16.4
				c0,0,17.1-77.4,13.4-82.3S162.2,713.7,162.2,713.7z"/>
			<path class="st16" d="M267.5,685.5c0,0,55.5,25,58.6,39s-34.1,1.6-39.6-3.2s15,26,16.6,38.3s19.4,37,11.8,33.9
				s-19.8-27.3-22.3-32.4s-13.2-10.8-13-8.9s8.5,36.4,8.5,45.8s-12.7,47.5-12.1,65s-7-34.6-15.9-59.4s7.6-26,8.2-45.7
				s14.6-62.2,3.2-63.5S267.5,685.5,267.5,685.5z"/>
			<path class="st17" d="M195.5,835.4c0,0-39.5,63.5-41.1,86.4s-56.8-0.6-43.4,12.1s27.3,17.2,41.9,10.8s24.6-50.2,26-24.8
				s-12,52.7-12,62.9s22.9-7.6,22.9-31.8s-3.8-36.8,5.7-50.8s25.7-34.3,29.7-50.2s2.1-26.7,4-23.5s-3.2,142.3,7,139.1
				s23.3-20.3,21.5-30.5s5.8-58.4-5-85.1s-10.2-22.2-18.4-30.5s-3.2-24.1-3.2-24.1s-3.5-5.1-5.9-19.4s-17-41-11.2-16.2
				s10.2,41,6.4,53.8s1.3,19.8-10.8,43.3c-12.1,23.5-8.2,6-8.2,6S219,832.9,195.5,835.4z"/>
			<path class="st16" d="M146.5,670.4c0,0,18.4,40.1,56.9,43.3s13.4-7.2-15.8-21.6S146.5,670.4,146.5,670.4z"/>
			<path class="st5" d="M344.7,805.6c0,0,100,206.1,96.6,159.1s-113.7-203.8-64.4-137.8s209.1,264,187.1,231.7
				s-78.4-120.3-118.4-178.9s-65.2-87-43.8-81.6s201.8,210.7,195.2,182.8S427.5,816.1,458.4,815.6s20.6,23,50.6,28.9
				s75.5,35.4,75.5,41.1s-45.8-53.4-89.6-70s-74.6-42-106.1-39.6S344.7,805.6,344.7,805.6z"/>
			<path class="st17" d="M258.6,1037.1c0,0,124.5,317.9,137.9,321.5s92.3-34.1,112.5-47.5c20.2-13.4-35.8-12.2-89.4-24.3
				s-43.9,18.3-53.6-12.2s-19.6-80.4-39.6-108.4S258.6,1037.1,258.6,1037.1z"/>
			<path class="st17" d="M421.6,1380c0,0,67.7-26.2,46-9s53.3-27.1,67.7-44.2s72.2-66.8,56.9-50.6s-93,103.8-108.4,103.8
				s-55.1,15.3-55.1,15.3L421.6,1380z"/>
			<path class="st17" d="M351.2,1387.2c0,0-18.1,6.3-31.6,8.1s-46,0-46,0s67.7,2.7,61.4-8.1s-47-30.7-61.4-37s-35.2-24.4-35.2-24.4
				L351.2,1387.2z"/>
			<path class="st17" d="M385.9,1367.9c0,0-1.9,16.8-9.1,14.7s-32.9-14.7-25.6-11.9s22.6,12.8,21.2,4.6s3.2-14.2,4.4-16.4
				S385.9,1367.9,385.9,1367.9z"/>
			<path class="st17" d="M394.1,1410.5c0,0-1.4,30.4,4.3,26.4s20.9-7.4,16-14.1S394.1,1410.5,394.1,1410.5z"/>
			<path class="st17" d="M415.4,1396.2c0,0,2.7,21.4,6.3,30.4s69.8,93.7,59.6,72.4s-65.4-77.2-46.5-76.2s38.5,27.9,28.7,14.5
				s-46.2-25.4-25.2-26.8s97.9,7.7,114,33.6s52.8,26.6,55.4,0.7s20.8-56-18.3-52.5s-122.1,8.8-148,6.3L415.4,1396.2z"/>
			<path class="st18" d="M717.1,521.8c0,0-32.6,47.1-49,45.6s-64.2,5.8-64.2,5.8s61.9,13.7,69.6,16.2s187.5,93.3,187.5,93.3l22,1.5
				c0,0-22.4-26.8-42-31.5s-124.1-65.5-148.5-75.5S715.3,540,717.1,521.8z"/>
			<path class="st7" d="M457.1,625.1c0,0-73.1,73.1-91,75s38.2,33.2,55.6,42.3s82.3,32.9,80.7,12.5s-27.7-37.1-49.8-45.6
				s-48.6-6.4-40-17S457.1,625.1,457.1,625.1z"/>
		</g>
	</g>
	
		<linearGradient id="Rectangle_29_3_" gradientUnits="userSpaceOnUse" x1="34.8454" y1="980.9726" x2="35.3813" y2="980.9362" gradientTransform="matrix(1.765328e-13 2883 1482 -9.074633e-14 -1453326.125 -100424.6172)">
		<stop  offset="0" style="stop-color:#B1FFC6"/>
		<stop  offset="1" style="stop-color:#2B78E0"/>
	</linearGradient>
	<path id="Rectangle_29" class="st19" d="M912.2,4.5l-10,1572.5c0,8-16,4.5-23.3,4.5H8.3C1,1581.5-5,1575-5,1567V14.5
		C-5,6.5,1,0,8.3,0h870.6C886.2,0,912.2-3.5,912.2,4.5z"/>
</g>
<g>
	<g>
		<path class="st20" d="M487.6,67l-2.9-8.2l-8.2,2.9c-2.4,0.8-4.6,1.9-6.6,3.2c0.6,1.9,1.1,3.9,1.7,5.8c2.1-1.5,4.4-2.7,6.9-3.6
			l2.8-1l1,2.8c2.3,6.4,2.1,13.3-0.5,19.6c2.1-0.8,4.4-1.4,6.7-1.9C490.1,80.4,490,73.5,487.6,67z"/>
		<path class="st20" d="M493,89.6c-4.8,0-9.4,0.9-13.6,2.5c0.5,1.9,0.9,3.8,1.2,5.7c3.8-1.6,8-2.5,12.5-2.5h4.3v4.3
			c0,17.3-13.7,31.4-30.8,32.1c-3.1,2.4-6.6,4.4-10.3,5.8h9c20.9,0,37.9-17,37.9-37.9V89.6H493z"/>
		<path class="st20" d="M405.3,68.9l1-2.8l2.8,1c1.6,0.6,3.1,1.3,4.5,2.1c0.5-1.8,1.1-3.7,1.6-5.7c-1.3-0.7-2.7-1.3-4.2-1.8
			l-8.2-2.9l-2.9,8.2c-2.4,6.6-2.5,13.4-0.8,19.7c2.3,0.4,4.6,1.1,6.7,1.9C403.2,82.2,403,75.3,405.3,68.9z"/>
		<path class="st20" d="M419.9,131.8c-16.6-1.2-29.7-15.1-29.7-32v-4.3h4.3c4,0,7.9,0.8,11.5,2.1c0.2-1.7,0.6-3.4,1-5.1
			c0,0,0.1-0.2,0.2-0.6c-4-1.4-8.2-2.2-12.7-2.2h-10.1v10.1c0,20.9,17,37.9,37.9,37.9h8C426.5,136.2,423,134.2,419.9,131.8z"/>
	</g>
	<path class="st21" d="M439.6,54.7c1.1-1.3,2.1-2.6,3-3.7l-3.6-4.4c-0.1-0.2-0.3-0.2-0.4-0.2c0,0,0,0,0,0c-0.1,0-0.3,0.1-0.4,0.3
		l-2.8,4.9C436.8,52.6,438.2,53.6,439.6,54.7z"/>
	<g>
		<g>
			<path class="st21" d="M471,81.2c-2-6.9-7.9-27.7-9.3-32.3c-0.1-0.4-0.7-0.6-1-0.3c-1.4,1-4.2,3.2-5.9,4.4
				C460,62,467.4,74.9,471,81.2z"/>
		</g>
	</g>
	<g>
		<path class="st21" d="M461.3,71c-4.4-7.7-9.4-16.4-12.1-21.1c-0.3-0.4-0.9-0.5-1.2-0.1c-2,2.4-3.9,4.8-5.7,6.9
			C449.5,62.1,456.9,67.7,461.3,71z"/>
	</g>
	<g>
		<path class="st21" d="M474.1,92c-2.1-6.1-5.8-11.5-10.9-15.4l0,0c-0.6-0.5-31.2-23.5-37.1-28c-0.5-0.4-1.2-0.1-1.3,0.4
			c-2,7.1-12.6,43.7-12.8,44.7l0,0c-1.8,6.4-1.5,13.2,0.7,19.5c4.6,12.9,16.9,21.6,30.7,21.6c3.3,0,6.6-0.5,9.8-1.5
			c1.8-0.6,3.6-1.3,5.3-2.2c0,0,0-0.1,0-0.1c1.1-4.8-3.4-8.9-8.1-7.4c-4.5,1.4-9.1,2.4-12.9,1.1c-4-1.4-1.9-5.7-2.1-7.7
			c-0.2-2-3.8-2.3-4.3-3.4c-0.5-1.1,1.3-2.5,1.1-3.3c-0.2-0.7-2.8-0.4-3.3-1.6c-0.5-1.3,1.2-3.8,0.1-6c-1.1-2.2-6.9-1.7-7.2-4.2
			c-0.4-2.4,5.3-6.4,5.7-12.3c0-0.7-0.1-1.6-0.4-2.8c-2.2,1-6.3,0.9-4.9,0.6c1.7-0.3,3.1-1.8,4.1-3.6l0,0c-0.7-2.8-1.6-6.2-1.9-9.8
			c-0.5-7,0.3-12.5,2.1-18.4c0-0.1,0.3-0.1,0.3,0c-0.1,4.6,0.2,18.8,18.3,35.7c10.4,9.6,18.8,20.7,19.5,29.5
			c0.2,2.6-0.1,6.9-2.1,11.1c4.1-3,7.4-6.9,9.7-11.5C476.2,109.2,476.8,100.4,474.1,92z"/>
	</g>
	<path class="st21" d="M383.8,162.9c-0.7-1-1.6-1.7-2.7-2.2c-1.1-0.4-2.4-0.8-4-1.2c-0.1,0-0.1,0-0.2,0c-0.1,0-0.1,0-0.2,0
		c0,0-0.1,0-0.1,0c0,0-0.1,0-0.1,0c-1.4-0.3-2.4-0.5-3.2-0.8c-0.8-0.2-1.4-0.6-1.9-1.1c-0.5-0.5-0.8-1.2-0.8-2.1v0
		c0-1.3,0.5-2.3,1.5-3c1-0.7,2.4-1.1,4.2-1.1c1,0,2,0.2,3,0.5c0.5,0.2,1,0.4,1.5,0.7c0.5,0.3,1,0.6,1.5,1l2.1-2.9
		c-0.9-0.6-1.7-1.1-2.6-1.5c-0.9-0.4-1.8-0.7-2.7-0.9c-0.9-0.2-1.8-0.3-2.8-0.3c-2,0-3.6,0.3-5,0.9c-1.4,0.6-2.5,1.5-3.2,2.6
		c-0.7,1.2-1.1,2.5-1.1,4.2v0c0,1.9,0.4,3.3,1.2,4.3c0.8,1,1.7,1.7,2.8,2.1c1.1,0.4,2.5,0.7,4.3,1l0.3,0c0,0,0.1,0,0.1,0
		c0,0,0.1,0,0.1,0c1.2,0.2,2.2,0.5,2.9,0.7c0.8,0.3,1.4,0.7,1.8,1.2c0.5,0.5,0.7,1.3,0.7,2.2v0c0,1.3-0.5,2.3-1.6,3
		s-2.5,1.1-4.4,1.1c-1.4,0-2.7-0.2-3.9-0.6c-0.6-0.2-1.2-0.5-1.7-0.8c-0.5-0.3-1.1-0.7-1.6-1.1l-2.3,2.8c0.8,0.7,1.8,1.3,2.7,1.8
		c1,0.5,2,0.8,3.2,1.1c1.1,0.2,2.3,0.4,3.6,0.4c2,0,3.8-0.3,5.2-0.9c1.4-0.6,2.5-1.5,3.3-2.6c0.8-1.1,1.1-2.5,1.1-4.1v0
		C384.9,165.2,384.5,163.9,383.8,162.9z"/>
	<path class="st21" d="M521.7,162.8C521.6,162.9,521.7,162.8,521.7,162.8c0.5-0.1,0.9-0.3,1.3-0.6c1.1-0.6,2-1.5,2.7-2.7
		c0.3-0.6,0.6-1.2,0.7-1.9c0.2-0.7,0.2-1.4,0.2-2.1c0-1.5-0.3-2.8-0.9-4c-0.6-1.1-1.5-2-2.7-2.7c-1.2-0.6-2.5-0.9-4-0.9h-10.4v26.2
		h3.7v-11.1h5.5l5.6,11.1h4.4L521.7,162.8z M512.3,159.7v-8.1h6.9c0.7,0,1.3,0.2,1.9,0.5c0.5,0.3,1,0.8,1.2,1.4
		c0.3,0.6,0.4,1.3,0.4,2.1c0,0.8-0.1,1.5-0.4,2.1c-0.3,0.6-0.7,1.1-1.3,1.4c-0.5,0.3-1.2,0.5-1.9,0.5H512.3z"/>
	<path class="st21" d="M495,148.1h-3.1l-9.7,26.2h4l2-5.7h10.6l2,5.7h4L495,148.1z M489.3,165.1l4.1-11.9l4.1,11.9H489.3z"/>
	<path class="st21" d="M471.1,148.1H468l-9.7,26.2h4l2-5.7h10.6l2,5.7h4L471.1,148.1z M465.5,165.1l4.1-11.9l4.1,11.9H465.5z"/>
	<path class="st21" d="M423.6,148.1h-3.1l-9.7,26.2h4l2-5.7h10.6l2,5.7h4L423.6,148.1z M417.9,165.1l4.1-11.9l4.1,11.9H417.9z"/>
	<path class="st21" d="M399.7,148.1h-3.1l-9.7,26.2h4l2-5.7h10.6l2,5.7h4L399.7,148.1z M394,165.1l4.1-11.9l4.1,11.9H394z"/>
	<polygon class="st21" points="457.2,174.3 452.7,174.3 445.1,161.5 440.8,166.7 440.8,174.3 437.2,174.3 437.2,148.1 440.8,148.1 
		440.8,161.8 451.6,148.1 456.1,148.1 447.7,158.3 	"/>
</g>
</svg>
