<?xml version="1.0" encoding="utf-8"?>
<!-- Generator: Adobe Illustrator 23.1.1, SVG Export Plug-In . SVG Version: 6.00 Build 0)  -->
<svg version="1.1" id="Layer_1" xmlns="http://www.w3.org/2000/svg" xmlns:xlink="http://www.w3.org/1999/xlink" x="0px" y="0px"
	 viewBox="0 0 2883 1389.4" style="enable-background:new 0 0 2883 1389.4;" xml:space="preserve">
<style type="text/css">
	.st0{clip-path:url(#SVGID_2_);}
	.st1{fill:#5C7072;}
	.st2{fill:#405051;}
	.st3{fill:#EFCEB9;}
	.st4{fill:#EED7DE;}
	.st5{fill:#E5C3D7;}
	.st6{fill:#E7CFBF;}
	.st7{fill:#BCA493;}
	.st8{fill:#2B2837;}
	.st9{fill:#734F46;}
	.st10{fill:#844230;}
	.st11{fill:#662E33;}
	.st12{fill:#E26564;}
	.st13{fill:#F7E3DB;}
	.st14{fill:#9D4B30;}
	.st15{fill:#3C394C;}
	.st16{fill:#DBC1CF;}
	.st17{fill:#C9A3B0;}
	.st18{fill:#CEB3A1;}
	.st19{opacity:0.73;clip-path:url(#SVGID_4_);fill:url(#Rectangle_29_1_);enable-background:new    ;}
	.st20{clip-path:url(#SVGID_6_);}
	.st21{fill-rule:evenodd;clip-rule:evenodd;fill:#6E6E6E;}
	.st22{fill-rule:evenodd;clip-rule:evenodd;fill:#36A834;}
</style>
<g>
	<g>
		<defs>
			<rect id="SVGID_1_" y="2.8" width="2883" height="1385.9"/>
		</defs>
		<clipPath id="SVGID_2_">
			<use xlink:href="#SVGID_1_"  style="overflow:visible;"/>
		</clipPath>
		<g class="st0">
			<g>
				<path class="st1" d="M978.4,1370.3c0,0,5.1,184.1,42.4,216.3l-664-0.2c8.1-24.7,65.8-329.8,111.2-366.1l45.4-36.3L978.4,1370.3z
					"/>
				<path class="st2" d="M875.9,1323.3c0,0-84.6,11.8-168.6-31.2s-171.5,8.3-68.2,33s283.9,41.2,214.3,45.2s-301-50.6-250.3-29.9
					s201.6,75.3,155.3,75.3c-46.2,0-294-37.6-207.7,0s122.1,50.1,122.1,50.1l-140.3,67.8l127.8,40.4l360.4,12.6
					c0,0-22.8-28.1-42.4-132.3c-2.2-12.1-15-41.9-7.6-62.9c7.5-21,20.5-28.4-11.9-46.3C926.4,1327.1,875.9,1323.3,875.9,1323.3z"/>
				<path class="st3" d="M591.2,1251.3c0,0,189,76.7,284.6,72c95.7-4.7,45.7-181.5-87.2-181.5S591.2,1251.3,591.2,1251.3z"/>
				<path class="st4" d="M684,476.8c0,0-4.9,6.5-9,4.9c-4-1.5-12.4,15.7-26.9,6.9c-14.5-8.9-34.6-33.4-56.6-33.1
					s-56.9,18.1-65.6,17.9c-8.7-0.2-34-17.4-43.3-8.3S385,517.7,382,558.5s-8.5,33.8-9,54.2s-2.4,53.7,9,65.1s54.2,46.2,91.5,60.2
					s66.1,75.6,66.1,75.6s-2.5,29.4-3,50.3c-0.5,20.9,23.2,133.4,25.5,141.1c2.3,7.7-42.1,32.1-43.6,49.8s-19.1,44.4-6.2,78
					c12.9,33.6-29.9,29.1-31.4,51.3s66.5,65.8,110.2,67.3s140.8-28.3,161.5-19.2c20.7,9.1-28.3,17.8,6.9,19.2
					c35.1,1.4,28.3-32.8,52,0s56.6,60.4,64.3,71.9s55.1,56.6,87.2,45.1c32.1-11.5,11.5-22.9,31.4-51.3s30.6-72.7,30.6-84.2
					s49.8-147.7,49.8-151.5s39.9-123.8,43.9-146.8c4-22.9,48.6-106.6,49.3-125.5c0.7-18.9-19.6-21.6,8.1-39.1s136.3-54.5,157.9-67.3
					s68.7-72.8,63.4-153s-128.5-57.3-150.3-64.1s-13.6-12.1-29.8-12.1c-16.1,0-68.3-15.3-80.7-15.3c-12.4,0-32.4-1.3-37.4,7.3
					c-5,8.6-5.3,32.7-13,27.4c-7.7-5.3-35.5-24.4-43.2-24.4s-20.7-1.9-31.5,9.9s-267.6-17-267.6-17L684,476.8z"/>
				<path class="st5" d="M563.6,534.7c0,0,66.8,20.7,67.4,57.6c0.6,36.9-55.6,62.5-55.6,112.8c0,50.4-98.4,33.9-99.7,22.2
					c-1.3-11.7-76-21.9-82.2-59.7s-18-94.4,0-106.1C411.5,549.9,563.6,534.7,563.6,534.7z"/>
				<path class="st5" d="M716.9,533.7c0,0,146.4,90.3,186.6,74.1s77-69.2,77-69.2l-49.1-51.8l-128.1,25.8l-86.5-24l-41.9-6.9
					L716.9,533.7z"/>
				<path class="st6" d="M1282.2,515.6c-12.9-20.2-56.1-42.2-67.8-49c-11.7-6.8-134.2-73.2-165.2-77.2s-61.7-14.3-61.7-14.3
					s-69.3-20.3-69.3-38.7s-33-90.6-25.2-97.4c7.8-6.8,29-13.8,51.3-13.1s32.9,3.4,38.1,3.4s6.9-2.5,13.3-3.4s42.5,14.8,52.5,15.4
					s20.6,18.5,29.2,24.3c8.6,5.9,17.5,30.9,26.4,39.1s39.3,30.2,55.6,32.9s174.4,48.6,208.9,74.3s73.1,39.7,94.8,76.2
					s-44.8,105.1-74.2,122.5s-107.6,47.3-136.5,53.5s-19.6,5.7-19.6,5.7s-19.6,0,3.6-27.8s4.6-32.4,13.4-63.9s28.9-56,28.9-56
					S1285.3,520.4,1282.2,515.6z"/>
				<path class="st7" d="M1247.4,600.9c0,0-5.5,35,22.9,35s119.8-38.7,121.7-54.7s30.2-42.7,30.2-42.7s-14.1-17.4-12.3-26
					c1.8-8.7,8.5-4.8,19.8-6.8c11.3-1.9,8.4-31.5,20.8-24.5s17.2,37.9,8.5,52.8c-8.7,14.9-52,71.3-95,89.3
					c-43,18.1-114.4,59.1-131.2,46.5c-15-11.2,3.6-27.8,3.6-27.8L1247.4,600.9z"/>
				<path class="st7" d="M972.8,318.8c0,0-4.3-1.8-10.9-11.5c-6.6-9.6-14.2-17.1-16.1-15.8c-1.9,1.2-2.5-2.4-3.1-7
					s-14.2-19.1-17.1-19.1s-12.7-8.4,7.2-8.4s12.7-14.5,22.3-14.5s-9,4.6-2.8,11.5s20.2,5.9,25.1,5.9c4.9,0-2.2,8.1,6.2,4.6
					c8.4-3.4,4.6-12.7,9.9-12.1c5.2,0.6,6.9,9.6,18,3.1s29.2-16.5,18.3-7.8s-26.6,7.2-28.3,15.5c-1.6,8.4-1.2,10.9,7.5,11.1
					s17.1-1.3,20.2-4.2c3.1-2.9,33.5-31.8,19.5-14.4s-25.6,22.6-42.1,30.9s-16.8,10.1-8.4,8.9s44.3-14.9,37.5-8.9
					s-53.3,11.9-59.9,17.9c-6.6,6-16.1,5.6-5.6,0s19.2-3.4,19.2-10.2c0-6.8-3.1-7.7-12.1-9.8s-11.5-5.8-18-5.8s-12.7,8.7-8.7,10.5
					C954.6,291,966.9,318.8,972.8,318.8z"/>
				<path class="st8" d="M991.3,379.8c14.3,19.7,22.3,76.2,22.8,94.6c1,40.5,21.6,158.1,20.9,180.3s2,43.9,27.6,69.4
					c25.5,25.5,56.3,77.9,54.4,116.6c-2,38.7-20.3,66.1-7.9,62.2c12.4-3.9,24.9-9.1,45.8,0.4s-40.6,7.5-53.1,23.2
					s-11.8-14.4-32.8-21s-12.4,0,0-44.5s5.2-84.5-8.5-98.3s-38.7-42.6-47.1-84.5s-31.5-41.9-37.3-72.1
					c-5.9-30.2-17.7-96.4-24.5-98.6c-6.9-2.2-20.1-20.8-20.1-20.8s-18.3,13.4-40.1-1.1s-93-93.9-58.7-119.4
					c34.2-25.5,79.7-81.6,79.7-81.6s14.6,36,23,46C943.8,340.6,980.4,364.6,991.3,379.8z"/>
				<path class="st6" d="M504.4,473.5c0,0,34.3,27.3,37.3,43.4c3,16.1,17.2,38.4,8.1,76.7c-9.1,38.4-7.1,57.5-7.1,57.5
					s-27.3,40.4-38.4,39.4s-66.6-57.5-71.7-60.6c-5-3-23.2-42.4-40.4-75.7c-17.2-33.3-28.3-49.5-27.3-80.7c1-31.3,3-53.5,22.2-91.9
					s147.4-176.7,160.5-200.4c13.1-23.6,26.2-48.9,36.3-56.9c10.1-8.1,30.3-24.2,43.4-37.3s72.4-20.8,90.1-14.4
					c17.8,6.4,64.2-4.7-14.5,41.7s-102,155-102,155s-24-2.6-36.1,6.5s-51.5,109-51.5,138.2C513.5,443.1,504.4,473.5,504.4,473.5z"/>
				<path class="st3" d="M607.9,280.4c0,0,8.2,44.1,6.5,57.3c-1.7,13.2-7.5,34.7,6.6,55.3s38.2,53.5,49.8,65.2
					c11.6,11.7,14.3,22.6,18.2,30.2c3.8,7.6,20.2,23.6,36.3,24c16.1,0.4,16.8-0.3,22.9,1.7c6.2,2,23.3,15.7,55.5,31.9
					c32.2,16.1,35.6,21.6,50.4,21.9s55.1,0.7,60-4.1c4.8-4.8,24.6-28.1,20.9-61.7l-3.4-15.4c0,0-35.6,8.6-50.1-24
					S857,385,862.4,372.8c5.5-12.2,8.1-14.8,8.1-14.8s10.1,7,18.1,0.7s22.1-36.3,23.4-42c1.3-5.7,2.6-21.6,5.3-23.9
					s5.8-9.7,2.5-16.9c-3.2-7.2-11.5-18.3-21.9-17.1s-29.3,5-29.3,5l-98.8-65.4l-118.4-28.1l-35.2,14.8
					C616.1,185.3,599.1,252.3,607.9,280.4z"/>
				<path class="st7" d="M667.3,332.2c0,0,9.2,10.3,6.2,23.5s-2.1,18.7-8.8,30.6c-1.6,2.8,0.1,2.3-2,5.7c-2.1,3.3,1,17.5,8.3,26
					s8.2,15.3,8.2,15.3s11.6,37.1,19.6,37.4s24.4,1.8,32.8,0.5c8.4-1.3,19.1,11.6,6.6,11.6s-32.3-5.3-32.5,0s6.9,22.4,23.9,22.4
					c17.1,0,13.8,7.4,4.8,7.3s-30-1.5-39.1-15.8s-13.6-26.6-20.1-33.6s-36.3-44.6-41.3-51.6c-4.9-7-21.1-19.5-21.3-39.4
					c-0.1-12.3,0.5-24.6,1.9-36.8c0,0-3.3-35.4-4.5-42.8s-6.9-46-6.9-46l10.6-44.6l29-11.3c0,0,44.6-4,38.8,6.1
					c-5.9,10.1-23.9-10.1-43.2,17.5s-19.7,42.2-19.7,52.8s7.5,40.2,13,40.6C636.9,307.8,667.3,332.2,667.3,332.2z"/>
				<path class="st7" d="M598.1,201.9c0,0,1.8,24-16.3,19.7s-21.1,9.5-19,31.9s-8.6,34.4-19,49.1c-10.3,14.6-44.8,66.3-45.6,93.9
					c-0.8,27.6,6.2,77.1,6.2,77.1s-4.4,9.9,3.2,23.6c7.7,13.7,40.4,41.4,40.4,41.4l-6.4-21.6c0,0-9.3-23.7-34.2-40.9
					c0,0-2.8-3-1.3-9.1c1.4-6.1,6.9-36.1,7.5-56.1s13.8-53.7,13.8-53.7l24.4-60.3c0,0,8.4-28,32.4-27.5s16.8-0.1,16.8-0.1
					S607.2,207.9,598.1,201.9z"/>
				<path class="st8" d="M607.9,280.4c0,0-17.2-21.5-14.3-47.6c2.8-26.1,14.3-93,27.2-105.9s71.6-34.8,88.2-47.2
					c16.6-12.4,39-38.7,84.8-22.9C839.6,72.5,901.1,113,903,156.4s9.2,55,15.8,63.6s-21.6,34.6-29.3,42.2s-8.1,20-6.2,24.3
					S858.1,318,849,308.9s-1-26.7-23.8-32.4c-22.8-5.7-31-24.8-47.6-36.2s-52-39.6-82.5-41s-29.6-10-42.9-7.7s-29.1,7.7-36.7,34.8
					C607.9,253.6,607.9,280.4,607.9,280.4z"/>
				<path class="st7" d="M552.7,563.2c0,0-28.4,55.9-36.1,37.3c-7.8-18.6,1-54.8-20.6-68.5s-49-1-59.8-7.9s-58.8-20.5-53.8,0
					s50.5,105.8,50.5,105.8s60.2,67,71.7,60.6c11.5-6.5,38.4-39.4,38.4-39.4s1.6-33.8,8.1-62.3C557.4,560.3,552.7,563.2,552.7,563.2
					z"/>
				<path class="st7" d="M432.5,459.2c0,0-8.8,12.6-14.2,10.5s-17.6-15.6-17.6-5.1s11.3,40.3,15.8,38.6s27.2-24.6,27.6-32.6
					S440,457.9,432.5,459.2z"/>
				<path class="st9" d="M878.9,331.7c0,0-3.1,0.5,0-3.3s6.4-9.5,2.1-14.7c-4.2-5.2-5.2-23,3.5-24.9c8.8-1.9,25-4.8,27.6,3.5
					c2.5,8.4,2.6,15.1-4.5,24.7c-7.1,9.5,5.2-11.9,1.9-15.6s-24.7-8.1-19.7-6s12,10.9,5.8,18.1c-6.3,7.2-11,13-10.8,15.4
					S878.9,331.7,878.9,331.7z"/>
				<path class="st10" d="M718,300.1c0,0-24.9,8.7-21.4,16.9c3.5,8.2,19.9-8.7,30.1-12.2c10.2-3.5,28.1-9.7,45.8-7.7
					c17.8,2,26.4-3,0-5.7C746.1,288.8,718,300.1,718,300.1z"/>
				<path class="st10" d="M612.2,294.4c0,0,41.2,16.3,54,35c5,7.4-8.3-0.5-21.8-11.4c-13.6-10.9-25-16.5-32.2-16.5
					S612.2,294.4,612.2,294.4z"/>
				<path class="st11" d="M623.9,333.7c0,0,4.3,3.1,0,6.8c-4.3,3.6-4.5,5.2-4.5,5.2c4.2,0.6,8.5,0.9,12.7,0.7
					c7.5-0.2,25.6-5.2,27.5-7.1c1.8-1.8-25.8,2-29.8-0.5C627.6,337.5,625.5,335.7,623.9,333.7z"/>
				<path class="st11" d="M783.5,319.1c0,0-6.8,0-16.1,6.3c-9.4,6.3-26.5,9.5-35.8,6.9s-18.2,0.2-13.2,0.9s17.3,7.4,22.7,7
					c5.5-0.4,15.6-1.6,23.3-4.9S783.5,319.1,783.5,319.1z"/>
				<path class="st12" d="M681,429c0,0,74.2-14.5,86.5-15.6s-9.3,15.6-17.3,26.7s-14.6,23-24.2,24.1c-36.3,3.9-41.8-8.1-43.9-16.1
					C679.9,440,681,429,681,429z"/>
				<path class="st13" d="M683.9,431.8c0,0,19.7,4.2,39.2-3.8c19.5-8.1,36.4-11.8,35.4-9.2c-1,2.6-19.3,20.1-26.5,22.8
					c-7.3,2.7-18,6.3-24.9,9.1C690.9,457.1,678.5,437.9,683.9,431.8z"/>
				<path class="st14" d="M709.4,380.5c0,0,13.9,1.2,12.5,9.4s-19.5,20.5-25.6,23.4c-6.2,2.9-6.7,7-6.7,7s3.9-3.5,14.3-9.8
					c8.6-5.1,21.1-14.1,21.1-19.8C725.1,385,724.7,381.1,709.4,380.5z"/>
				<path class="st14" d="M673.4,355.7c0,0-13.3,35.6-13.1,46.4s30.6,25.4,22.2,21.4c-11.6-5.7-18.5-15-19.2-23.2
					S673.4,355.7,673.4,355.7z"/>
				<path class="st15" d="M735.1,75.4c0,0,114.8-9.6,142.4,63.1s25,97.2,26,103s-40.7,17.6-36.7,7.2c3.9-10.4,25.5,7.2,4.7-51.9
					c-20.8-59-122.1-110.1-93.4-75c28.8,35.1,83,50.3,79.8,76.6c-3.1,26.3,42.1,55.8-23.1,28S834,241,846,252.8s17.6,36.6-35.1-8.9
					s-111.5-97.4-141.2-85.4s-56,5.6-41.6-9.6C642.6,133.8,735.1,75.4,735.1,75.4z"/>
				<path class="st16" d="M1064.2,515.6c0,0,26.7,47.7,26.7,76.9v77.4c0,27.8,10.9,71.3,10.9,71.3l-9.8,21.4c0,0-3.5-14.7-16-44
					s-4.1-41-17.6-59.2c-13.4-18.3-39.1-87.3-37.4-120.1c1.6-32.8,14.9-85.6,14.1-59.2c-0.8,26.3-8.4,55.2,1.7,78.4s26.7,9,24.6-8.5
					C1059.4,532.5,1052.5,513,1064.2,515.6z"/>
				<path class="st16" d="M1126.1,503.3c0,0-9.2,43.6-9.2,64.8s13.3,31.6,12.5,49.8s-4.1,63.6,0,72.6s-20.9,40-20.9,40
					s-5.9-70.2-6.7-98.5c-0.8-28.4-3.3-70.2,0-86C1105.2,530.1,1126.1,503.3,1126.1,503.3z"/>
				<path class="st16" d="M1248.8,498.3c0,0-45.9,39.3-39.3,96.9s19.3,70.9,19.3,70.9l7.6-23.8l11-41.3c0,0-23.5,20.5-18.6-32.8
					C1233.8,514.8,1248.8,498.3,1248.8,498.3z"/>
				<path class="st16" d="M1371.6,619.8c0,0-12.3,67.9-52.5,81.2c-40.2,13.2-86.3-31-86.3-31S1344.3,638.3,1371.6,619.8z"/>
				<path class="st16" d="M541.8,516.9c0,0,34.7,32.2,35.7,46.4s12.6,37.8,0,52.5s-26.2,40.9-30.4,45.1c-4.1,4.2-13.1,6.9-13.1,6.9
					l8.8-16.6c0,0,17.3-78.1,13.5-83.1C552.6,563.3,541.8,516.9,541.8,516.9z"/>
				<path class="st16" d="M648,488.5c0,0,56,25.2,59.1,39.4c3.1,14.1-34.4,1.6-40-3.2s15.1,26.2,16.8,38.7
					c1.6,12.4,19.6,37.3,11.9,34.2s-20-27.6-22.5-32.7c-2.5-5.1-13.3-10.9-13.1-9s8.6,36.7,8.6,46.2S656,650,656.6,667.6
					c0.6,17.7-7.1-34.9-16-60c-9-25,7.7-26.2,8.3-46.1c0.6-19.9,14.7-62.8,3.2-64.1C640.6,496.1,648,488.5,648,488.5z"/>
				<path class="st17" d="M575.4,639.8c0,0-39.9,64.1-41.5,87.2c-1.6,23.1-57.3-0.6-43.8,12.2s27.6,17.4,42.3,10.9
					s24.8-50.7,26.2-25c1.4,25.6-12.1,53.2-12.1,63.5s23.1-7.7,23.1-32.1c0-24.4-3.8-37.1,5.8-51.3s25.9-34.6,30-50.7
					s2.1-26.9,4-23.7s-3.2,143.6,7.1,140.4c10.3-3.2,23.5-20.5,21.7-30.8s5.9-58.9-5-85.9s-10.3-22.4-18.6-30.8s-3.2-24.3-3.2-24.3
					s-3.5-5.1-6-19.6c-2.4-14.4-17.2-41.4-11.3-16.4s10.3,41.4,6.5,54.3s1.3,20-10.9,43.7s-8.3,6.1-8.3,6.1S599.1,637.2,575.4,639.8
					z"/>
				<path class="st16" d="M525.9,473.2c0,0,18.6,40.5,57.4,43.7c38.9,3.2,13.5-7.3-15.9-21.8S525.9,473.2,525.9,473.2z"/>
				<path class="st5" d="M726,609.7c0,0,100.9,208,97.5,160.6c-3.4-47.4-114.8-205.7-65-139.1s211.1,266.5,188.9,233.9
					c-22.2-32.6-79.1-121.4-119.5-180.6s-65.8-87.8-44.2-82.4s203.7,212.7,197,184.5S809.6,620.3,840.8,619.8
					c31.2-0.5,20.8,23.2,51.1,29.2s76.2,35.7,76.2,41.5s-46.2-53.9-90.4-70.7s-75.3-42.4-107.1-40C738.7,582.2,726,609.7,726,609.7z
					"/>
				<path class="st17" d="M639.1,843.4c0,0,125.7,320.9,139.2,324.5s93.2-34.4,113.6-47.9c20.4-13.5-36.1-12.3-90.2-24.5
					s-44.3,18.5-54.1-12.3s-19.8-81.2-40-109.4S639.1,843.4,639.1,843.4z"/>
				<path class="st17" d="M803.6,1189.5c0,0,68.3-26.4,46.4-9.1s53.8-27.4,68.3-44.6s72.9-67.4,57.4-51.1
					c-15.4,16.4-93.9,104.8-109.4,104.8s-55.6,15.4-55.6,15.4L803.6,1189.5z"/>
				<path class="st17" d="M732.5,1196.7c0,0-18.3,6.4-31.9,8.2c-13.6,1.8-46.4,0-46.4,0s68.3,2.7,62-8.2s-47.4-31-62-37.3
					c-14.5-6.4-35.5-24.6-35.5-24.6L732.5,1196.7z"/>
				<path class="st17" d="M767.6,1177.3c0,0-1.9,17-9.2,14.8s-33.2-14.8-25.8-12s22.8,12.9,21.4,4.6c-1.4-8.3,3.2-14.3,4.4-16.6
					C759.6,1165.9,767.6,1177.3,767.6,1177.3z"/>
				<path class="st17" d="M775.8,1220.3c0,0-1.4,30.7,4.3,26.6c5.8-4,21.1-7.5,16.1-14.2C791.4,1225.9,775.8,1220.3,775.8,1220.3z"
					/>
				<path class="st17" d="M797.3,1205.8c0,0,2.7,21.6,6.4,30.7s70.5,94.6,60.2,73.1s-66-77.9-46.9-76.9s38.9,28.2,29,14.6
					c-9.9-13.5-46.6-25.6-25.4-27.1c21.2-1.4,98.8,7.8,115.1,33.9s53.3,26.8,55.9,0.7c2.6-26.1,21-56.5-18.5-53
					s-123.2,8.9-149.4,6.4L797.3,1205.8z"/>
				<path class="st18" d="M1101.9,323.2c0,0-32.9,47.5-49.5,46s-64.8,5.9-64.8,5.9s62.5,13.8,70.3,16.4
					c7.8,2.5,189.3,94.2,189.3,94.2l22.2,1.5c0,0-22.6-27.1-42.4-31.8c-19.8-4.7-125.3-66.1-149.9-76.2
					C1052.4,369.1,1100,341.6,1101.9,323.2z"/>
				<path class="st7" d="M839.4,427.5c0,0-73.8,73.8-91.9,75.7c-18.1,1.9,38.6,33.5,56.1,42.7c17.6,9.2,83.1,33.2,81.5,12.6
					c-1.6-20.6-28-37.4-50.3-46c-22.3-8.6-49.1-6.5-40.4-17.2C803.2,484.6,839.4,427.5,839.4,427.5z"/>
			</g>
		</g>
	</g>
	<g>
		<defs>
			<rect id="SVGID_3_" y="2.8" width="2883" height="1385.9"/>
		</defs>
		<clipPath id="SVGID_4_">
			<use xlink:href="#SVGID_3_"  style="overflow:visible;"/>
		</clipPath>
		
			<linearGradient id="Rectangle_29_1_" gradientUnits="userSpaceOnUse" x1="2288.0139" y1="8.0497" x2="2287.3845" y2="7.0224" gradientTransform="matrix(2883 0 0 1482 -6594016 -10489.8799)">
			<stop  offset="0" style="stop-color:#B1FFC6"/>
			<stop  offset="1" style="stop-color:#2B78E0;stop-opacity:0.4"/>
		</linearGradient>
		<rect id="Rectangle_29" y="2.8" class="st19" width="2883" height="1385.9"/>
	</g>
	<g>
		<defs>
			<rect id="SVGID_5_" y="2.8" width="2883" height="1385.9"/>
		</defs>
		<clipPath id="SVGID_6_">
			<use xlink:href="#SVGID_5_"  style="overflow:visible;"/>
		</clipPath>
		<g class="st20">
			<g>
				<path class="st21" d="M2290.3,59.6l-4.2-12l-12,4.2c-3.5,1.2-6.7,2.8-9.6,4.7c0.9,2.8,1.6,5.7,2.5,8.5c3.1-2.2,6.4-3.9,10.1-5.3
					l4.1-1.5l1.5,4.1c3.4,9.3,3.1,19.4-0.7,28.6c3.1-1.2,6.4-2,9.8-2.8C2293.9,79.2,2293.8,69.1,2290.3,59.6z"/>
				<path class="st21" d="M2298.1,92.6c-7,0-13.7,1.3-19.9,3.6c0.7,2.8,1.3,5.5,1.8,8.3c5.5-2.3,11.7-3.6,18.2-3.6h6.3v6.3
					c0,25.3-20,45.8-45,46.9c-4.5,3.5-9.6,6.4-15,8.5h13.1c30.5,0,55.3-24.8,55.3-55.3V92.6H2298.1z"/>
				<path class="st21" d="M2170.1,62.4l1.5-4.1l4.1,1.5c2.3,0.9,4.5,1.9,6.6,3.1c0.7-2.6,1.6-5.4,2.3-8.3c-1.9-1-3.9-1.9-6.1-2.6
					l-12-4.2l-4.2,12c-3.5,9.6-3.6,19.6-1.2,28.8c3.4,0.6,6.7,1.6,9.8,2.8C2167.1,81.8,2166.8,71.7,2170.1,62.4z"/>
				<path class="st21" d="M2191.4,154.2c-24.2-1.8-43.3-22-43.3-46.7v-6.3h6.3c5.8,0,11.5,1.2,16.8,3.1c0.3-2.5,0.9-5,1.5-7.4
					c0,0,0.1-0.3,0.3-0.9c-5.8-2-12-3.2-18.5-3.2h-14.7v14.7c0,30.5,24.8,55.3,55.3,55.3h11.7C2201.1,160.6,2196,157.7,2191.4,154.2
					z"/>
			</g>
			<path class="st22" d="M2220.2,41.7c1.6-1.9,3.1-3.8,4.4-5.4l-5.3-6.4c-0.1-0.3-0.4-0.3-0.6-0.3l0,0c-0.1,0-0.4,0.1-0.6,0.4
				l-4.1,7.2C2216.1,38.6,2218.1,40,2220.2,41.7z"/>
			<g>
				<g>
					<path class="st22" d="M2266,80.3c-2.9-10.1-11.5-40.4-13.6-47.1c-0.1-0.6-1-0.9-1.5-0.4c-2,1.5-6.1,4.7-8.6,6.4
						C2250,52.3,2260.8,71.1,2266,80.3z"/>
				</g>
			</g>
			<g>
				<path class="st22" d="M2251.9,65.4c-6.4-11.2-13.7-23.9-17.7-30.8c-0.4-0.6-1.3-0.7-1.8-0.1c-2.9,3.5-5.7,7-8.3,10.1
					C2234.6,52.5,2245.4,60.6,2251.9,65.4z"/>
			</g>
			<g>
				<path class="st22" d="M2270.5,96.1c-3.1-8.9-8.5-16.8-15.9-22.5l0,0c-0.9-0.7-45.5-34.3-54.1-40.9c-0.7-0.6-1.8-0.1-1.9,0.6
					c-2.9,10.4-18.4,63.8-18.7,65.2l0,0c-2.6,9.3-2.2,19.3,1,28.5c6.7,18.8,24.7,31.5,44.8,31.5c4.8,0,9.6-0.7,14.3-2.2
					c2.6-0.9,5.3-1.9,7.7-3.2V153c1.6-7-5-13-11.8-10.8c-6.6,2-13.3,3.5-18.8,1.6c-5.8-2-2.8-8.3-3.1-11.2s-5.5-3.4-6.3-5
					c-0.7-1.6,1.9-3.6,1.6-4.8c-0.3-1-4.1-0.6-4.8-2.3c-0.7-1.9,1.8-5.5,0.1-8.8c-1.6-3.2-10.1-2.5-10.5-6.1
					c-0.6-3.5,7.7-9.3,8.3-18c0-1-0.1-2.3-0.6-4.1c-3.2,1.5-9.2,1.3-7.2,0.9c2.5-0.4,4.5-2.6,6-5.3l0,0c-1-4.1-2.3-9-2.8-14.3
					c-0.7-10.2,0.4-18.2,3.1-26.9c0-0.1,0.4-0.1,0.4,0c-0.1,6.7,0.3,27.4,26.7,52.1c15.2,14,27.4,30.2,28.5,43.1
					c0.3,3.8-0.1,10.1-3.1,16.2c6-4.4,10.8-10.1,14.2-16.8C2273.6,121.2,2274.5,108.4,2270.5,96.1z"/>
			</g>
			<path class="st22" d="M2138.7,199.6c-1-1.5-2.3-2.5-3.9-3.2c-1.6-0.6-3.5-1.2-5.8-1.8c-0.1,0-0.1,0-0.3,0s-0.1,0-0.3,0h-0.1h-0.1
				c-2-0.4-3.5-0.7-4.7-1.2c-1.2-0.3-2-0.9-2.8-1.6c-0.7-0.7-1.2-1.8-1.2-3.1l0,0c0-1.9,0.7-3.4,2.2-4.4s3.5-1.6,6.1-1.6
				c1.5,0,2.9,0.3,4.4,0.7c0.7,0.3,1.5,0.6,2.2,1s1.5,0.9,2.2,1.5l3.1-4.2c-1.3-0.9-2.5-1.6-3.8-2.2c-1.3-0.6-2.6-1-3.9-1.3
				c-1.3-0.3-2.6-0.4-4.1-0.4c-2.9,0-5.3,0.4-7.3,1.3s-3.6,2.2-4.7,3.8c-1,1.8-1.6,3.6-1.6,6.1l0,0c0,2.8,0.6,4.8,1.8,6.3
				s2.5,2.5,4.1,3.1s3.6,1,6.3,1.5h0.4h0.1h0.1c1.8,0.3,3.2,0.7,4.2,1c1.2,0.4,2,1,2.6,1.8c0.7,0.7,1,1.9,1,3.2l0,0
				c0,1.9-0.7,3.4-2.3,4.4s-3.6,1.6-6.4,1.6c-2,0-3.9-0.3-5.7-0.9c-0.9-0.3-1.8-0.7-2.5-1.2c-0.7-0.4-1.6-1-2.3-1.6l-3.4,4.1
				c1.2,1,2.6,1.9,3.9,2.6c1.5,0.7,2.9,1.2,4.7,1.6c1.6,0.3,3.4,0.6,5.3,0.6c2.9,0,5.5-0.4,7.6-1.3c2-0.9,3.6-2.2,4.8-3.8
				s1.6-3.6,1.6-6l0,0C2140.4,202.9,2139.8,201,2138.7,199.6z"/>
			<path class="st22" d="M2340,199.4C2339.9,199.6,2340,199.4,2340,199.4c0.7-0.1,1.3-0.4,1.9-0.9c1.6-0.9,2.9-2.2,3.9-3.9
				c0.4-0.9,0.9-1.8,1-2.8c0.3-1,0.3-2,0.3-3.1c0-2.2-0.4-4.1-1.3-5.8c-0.9-1.6-2.2-2.9-3.9-3.9c-1.8-0.9-3.6-1.3-5.8-1.3h-15.2
				v38.2h5.4v-16.2h8l8.2,16.2h6.4L2340,199.4z M2326.3,194.9v-11.8h10.1c1,0,1.9,0.3,2.8,0.7c0.7,0.4,1.5,1.2,1.8,2
				c0.4,0.9,0.6,1.9,0.6,3.1c0,1.2-0.1,2.2-0.6,3.1c-0.4,0.9-1,1.6-1.9,2c-0.7,0.4-1.8,0.7-2.8,0.7h-9.9v0.2H2326.3z"/>
			<path class="st22" d="M2301.1,178h-4.5l-14.2,38.2h5.8l2.9-8.3h15.5l2.9,8.3h5.8L2301.1,178z M2292.7,202.8l6-17.4l6,17.4H2292.7
				z"/>
			<path class="st22" d="M2266.2,178h-4.5l-14.2,38.2h5.8l2.9-8.3h15.5l2.9,8.3h5.8L2266.2,178z M2258,202.8l6-17.4l6,17.4H2258z"/>
			<path class="st22" d="M2196.8,178h-4.5l-14.2,38.2h5.8l2.9-8.3h15.5l2.9,8.3h5.8L2196.8,178z M2188.5,202.8l6-17.4l6,17.4H2188.5
				z"/>
			<path class="st22" d="M2162,178h-4.5l-14.2,38.2h5.8l2.9-8.3h15.5l2.9,8.3h5.8L2162,178z M2153.6,202.8l6-17.4l6,17.4H2153.6z"/>
			<polygon class="st22" points="2245.9,216.2 2239.3,216.2 2228.2,197.5 2221.9,205.1 2221.9,216.2 2216.7,216.2 2216.7,178 
				2221.9,178 2221.9,198 2237.7,178 2244.3,178 2232,192.9 			"/>
		</g>
	</g>
</g>
</svg>
