<?xml version="1.0" encoding="utf-8"?>
<!-- Generator: Adobe Illustrator 23.1.1, SVG Export Plug-In . SVG Version: 6.00 Build 0)  -->
<svg version="1.1" id="Layer_1" xmlns="http://www.w3.org/2000/svg" xmlns:xlink="http://www.w3.org/1999/xlink" x="0px" y="0px"
	 viewBox="0 0 4860.8 2453.6" style="enable-background:new 0 0 4860.8 2453.6;" xml:space="preserve">
<style type="text/css">
	.st0{fill-rule:evenodd;clip-rule:evenodd;fill:url(#SVGID_1_);}
	.st1{fill-rule:evenodd;clip-rule:evenodd;fill:#FFFFFF;}
	.st2{fill-rule:evenodd;clip-rule:evenodd;fill:url(#SVGID_2_);}
	.st3{clip-path:url(#SVGID_4_);}
	.st4{fill-rule:evenodd;clip-rule:evenodd;fill:#6F6F6E;}
	.st5{fill-rule:evenodd;clip-rule:evenodd;fill:#38AA34;}
	.st6{opacity:0.15;}
	.st7{fill-rule:evenodd;clip-rule:evenodd;fill:#FFE2C0;}
	.st8{fill-rule:evenodd;clip-rule:evenodd;fill:#F5AF5B;}
	.st9{fill-rule:evenodd;clip-rule:evenodd;fill:#333C3C;}
	.st10{clip-path:url(#SVGID_6_);}
	.st11{fill:#4F67AC;}
	.st12{opacity:0.3;fill-rule:evenodd;clip-rule:evenodd;fill:#282828;enable-background:new    ;}
	.st13{fill-rule:evenodd;clip-rule:evenodd;fill:#8DD5E3;}
	.st14{fill-rule:evenodd;clip-rule:evenodd;fill:#4A7EB6;}
	.st15{fill-rule:evenodd;clip-rule:evenodd;fill:#E2A059;}
	.st16{fill-rule:evenodd;clip-rule:evenodd;fill:#313638;}
	.st17{fill-rule:evenodd;clip-rule:evenodd;fill:#C6C6C6;}
	.st18{fill-rule:evenodd;clip-rule:evenodd;fill:#EDD0B4;}
	.st19{clip-path:url(#SVGID_8_);}
	.st20{fill:#5B5B5B;}
	.st21{fill-rule:evenodd;clip-rule:evenodd;fill:#894141;}
	.st22{fill-rule:evenodd;clip-rule:evenodd;fill:#DBB2DB;}
	.st23{fill-rule:evenodd;clip-rule:evenodd;fill:#EACDB0;}
	.st24{clip-path:url(#SVGID_10_);}
	.st25{fill:#242014;}
	.st26{fill-rule:evenodd;clip-rule:evenodd;fill:#323A3B;}
	.st27{fill-rule:evenodd;clip-rule:evenodd;fill:#242014;}
	.st28{fill-rule:evenodd;clip-rule:evenodd;}
	.st29{fill-rule:evenodd;clip-rule:evenodd;fill:#AFAFAF;}
	.st30{fill-rule:evenodd;clip-rule:evenodd;fill:#313A39;}
	.st31{fill-rule:evenodd;clip-rule:evenodd;fill:#602843;}
	.st32{fill-rule:evenodd;clip-rule:evenodd;fill:#5B5B5B;}
	.st33{fill-rule:evenodd;clip-rule:evenodd;fill:#2C3231;}
	.st34{fill-rule:evenodd;clip-rule:evenodd;fill:#4D76B8;}
	.st35{fill-rule:evenodd;clip-rule:evenodd;fill:#4C4C4C;}
	.st36{fill-rule:evenodd;clip-rule:evenodd;fill:#CBC3B1;}
	.st37{fill-rule:evenodd;clip-rule:evenodd;fill:#B2AB9D;}
</style>
<title>saakar desktop copy</title>
<linearGradient id="SVGID_1_" gradientUnits="userSpaceOnUse" x1="-140.8702" y1="1679.2371" x2="4990.9351" y2="774.3578" gradientTransform="matrix(1 0 0 -1 4.94 2451.8896)">
	<stop  offset="0.23" style="stop-color:#FFFFFF"/>
	<stop  offset="1" style="stop-color:#B0EBFF;stop-opacity:0.49"/>
</linearGradient>
<polygon class="st0" points="0.1,1.4 4861.5,1.4 4860.1,2447.3 -0.1,2449.1 "/>
<path class="st1" d="M1729,94.1h1665.2c109.8,0,198.8,137.1,198.8,306.1v910.4c0,169.1-89,306.1-198.8,306.1H1732
	c-109.2,0-198-135.7-198.8-303.9l-3-910.4C1529.4,232.5,1618.6,94.1,1729,94.1z"/>
<radialGradient id="SVGID_2_" cx="3909.8899" cy="-337.7551" r="2611.28" gradientTransform="matrix(1 0 0 -1.11 0 2343.9377)" gradientUnits="userSpaceOnUse">
	<stop  offset="0" style="stop-color:#9DBDF9"/>
	<stop  offset="0.88" style="stop-color:#B7EEB3"/>
</radialGradient>
<path class="st2" d="M4860.8,1278.4v1177.5l-4861.6,4.2l1.5-820.9c0,0,338.1-333.1,1103.5-333.1c427.5,0,1109.1,298.5,1179.8,279.9
	c9.7-2.6,19.2-7.5,29.6-8.1c367.1-20.7,1205.6-261.4,1279.5-267.4C4487.6,1238.7,4860.8,1278.4,4860.8,1278.4z"/>
<g>
	<defs>
		<rect id="SVGID_3_" x="2367.6" y="98.7" width="414.3" height="328"/>
	</defs>
	<clipPath id="SVGID_4_">
		<use xlink:href="#SVGID_3_"  style="overflow:visible;"/>
	</clipPath>
	<g class="st3">
		<path class="st4" d="M2679.2,151.4l-7.5-21l-21,7.5c-5.9,2.1-11.6,4.9-16.8,8.3c1.4,5,2.8,10,4.3,14.9c5.4-3.9,11.3-7.1,17.6-9.3
			l7.2-2.6l2.6,7.2c5.9,16.3,5.4,34.2-1.3,50.1c5.6-2.1,11.3-3.7,17.2-4.7C2685.7,185.1,2685,167.5,2679.2,151.4"/>
		<path class="st4" d="M2693.1,209.4c-11.9,0-23.7,2.2-34.8,6.4c1.4,4.8,2.4,9.7,3,14.7c10.1-4.3,20.9-6.4,31.9-6.4h11.1v11.1
			c-0.1,44-34.7,80.2-78.7,82.1c-8,6.3-16.9,11.3-26.4,14.8h22.9c53.5,0,96.9-43.4,96.9-96.9c0,0,0,0,0,0v-25.8H2693.1z"/>
		<path class="st4" d="M2468.8,156.3l2.6-7.2l7.2,2.6c4,1.4,7.8,3.2,11.5,5.3c1.3-4.7,2.7-9.5,4.2-14.5c-3.4-1.8-7-3.4-10.7-4.7
			l-21-7.5l-7.5,21c-5.8,16.2-6.5,33.7-2,50.3c5.9,1.1,11.6,2.7,17.2,4.8C2463.4,190.5,2462.9,172.6,2468.8,156.3"/>
		<path class="st4" d="M2506,317.2c-42.8-3.3-76-39-76-81.9v-11.1h11.1c10,0,20,1.8,29.3,5.4c0.6-4.4,1.4-8.7,2.6-12.9
			c0,0,0.2-0.6,0.5-1.7c-10.4-3.7-21.4-5.6-32.4-5.5h-25.8v25.8c0,53.5,43.4,96.9,96.9,96.9l0,0h20.4
			C2522.9,328.6,2513.9,323.6,2506,317.2"/>
		<path class="st5" d="M2556.5,120l7.8-9.5l-9.2-11.3c-0.3-0.3-0.6-0.5-1-0.5h-0.1c-0.4,0-0.8,0.3-1,0.7l-7.2,12.5L2556.5,120"/>
		<path class="st5" d="M2636.7,187.8c-5-17.6-20.3-70.9-23.7-82.7c-0.3-0.9-1.2-1.4-2.1-1.1c-0.2,0.1-0.4,0.2-0.5,0.3l-15,11.3
			L2636.7,187.8"/>
		<path class="st5" d="M2611.8,161.7l-30.9-54c-0.5-0.9-1.7-1.2-2.6-0.7c-0.2,0.1-0.4,0.3-0.5,0.4l-14.5,17.8L2611.8,161.7"/>
		<path class="st5" d="M2644.5,215.6c-5.2-15.6-14.9-29.3-28-39.4l0,0l-94.9-71.6c-0.9-0.7-2.3-0.5-3,0.4c-0.2,0.2-0.3,0.5-0.4,0.7
			c-5.2,18.1-32.1,111.9-32.8,114.3l0,0c-12.1,44.3,14,90.1,58.4,102.1c15.5,4.2,31.8,3.9,47.1-1c4.6-1.5,9.2-3.4,13.5-5.6l0.1-0.2
			c2.8-12.2-8.8-22.7-20.7-19c-11.5,3.5-23.2,6.1-33,2.7c-10.3-3.6-4.9-14.5-5.5-19.7s-9.7-6-10.9-8.8c-1.2-2.8,3.4-6.5,2.7-8.3
			c-0.6-1.9-7.2-0.9-8.5-4.2c-1.2-3.2,3.1-9.8,0.3-15.3c-2.8-5.5-17.5-4.5-18.5-10.6c-0.9-6.1,13.5-16.3,14.5-31.5
			c0-2.4-0.3-4.8-0.9-7.1c-5.5,2.6-16.2,2.3-12.5,1.6c4.5-0.9,8-4.6,10.5-9.1h0.1c-1.9-7.1-4.2-15.8-4.8-25.1
			c-1.3-15.9,0.5-31.9,5.4-47.2c0-0.2,0.2-0.3,0.4-0.2c0.2,0,0.3,0.2,0.3,0.4c-0.3,11.9,0.6,48.1,46.9,91.2
			c26.5,24.7,48.2,53.1,49.9,75.4c0.6,9.8-1.2,19.6-5.3,28.5C2644,287.6,2656,249.8,2644.5,215.6"/>
		<path class="st5" d="M2413.7,396.8c-1.7-2.4-4.1-4.3-6.8-5.5c-3.3-1.3-6.7-2.3-10.2-3c-0.2,0-0.3-0.1-0.5-0.1l-0.5-0.1l-0.3-0.1
			c-0.1,0-0.2,0-0.3-0.1c-2.7-0.5-5.5-1.2-8.1-2c-1.8-0.6-3.5-1.6-4.9-2.9c-1.4-1.5-2.1-3.4-1.9-5.4v0c-0.1-3.1,1.3-6,3.8-7.8
			c2.5-1.8,6.1-2.7,10.7-2.7c2.6,0,5.2,0.5,7.6,1.4c1.3,0.5,2.6,1.1,3.8,1.8c1.3,0.7,2.6,1.6,3.8,2.5l5.3-7.5
			c-2.1-1.5-4.3-2.8-6.7-3.9c-2.2-1-4.5-1.8-6.9-2.3c-2.3-0.5-4.7-0.8-7.1-0.8c-4.4-0.1-8.8,0.7-12.9,2.3c-3.3,1.3-6.2,3.7-8.1,6.7
			c-1.9,3.2-2.9,6.9-2.8,10.6l0,0c0,4.7,1,8.4,3,11c1.8,2.4,4.3,4.3,7.2,5.3c3.6,1.2,7.2,2,11,2.6l0.7,0.1c0.1,0,0.2,0,0.3,0
			c0.1,0,0.2,0,0.3,0c2.5,0.4,5,1,7.4,1.8c1.8,0.6,3.4,1.6,4.7,3c1.3,1.6,1.9,3.5,1.8,5.6l0,0c0.1,3.1-1.4,6-4,7.6
			c-2.7,1.8-6.4,2.7-11.3,2.7c-3.4,0-6.8-0.5-10-1.7c-1.5-0.6-3-1.2-4.4-2.1c-1.4-0.9-2.8-1.8-4-2.9l-5.8,7.2
			c4.3,3.7,9.5,6.2,15.1,7.4c3,0.6,6.1,0.9,9.2,0.9c4.5,0.1,9.1-0.7,13.3-2.3c3.4-1.3,6.3-3.6,8.4-6.6c2-3.1,3-6.8,2.9-10.5v0.1
			C2416.4,402.9,2415.5,399.4,2413.7,396.8"/>
		<path class="st5" d="M2766.4,396.7L2766.4,396.7c1.2-0.4,2.3-0.8,3.4-1.4c2.9-1.6,5.3-3.9,6.8-6.8c0.8-1.5,1.4-3.1,1.8-4.7
			c0.4-1.8,0.6-3.6,0.6-5.4c0.1-3.5-0.8-7-2.4-10.2c-1.6-2.9-3.9-5.2-6.8-6.8c-3.1-1.7-6.7-2.5-10.2-2.4H2733v67.1h9.4v-28.4h14
			l14.3,28.4h11.1L2766.4,396.7z M2742.4,388.8v-20.8h17.6c1.7,0,3.3,0.4,4.8,1.3c1.4,0.9,2.5,2.2,3.2,3.7c1.5,3.5,1.5,7.4,0,10.9
			c-0.7,1.5-1.8,2.8-3.2,3.7c-1.4,0.9-3.1,1.3-4.7,1.3H2742.4z"/>
		<path class="st5" d="M2698.1,359h-8l-24.7,67.1h10.2l5-14.7h27l5,14.7h10.2L2698.1,359z M2683.7,402.4l10.4-30.4l10.5,30.4H2683.7
			z"/>
		<path class="st5" d="M2637,359h-8l-24.7,67.1h10.2l5-14.7h27l5.1,14.7h10.1L2637,359z M2622.6,402.4L2633,372l10.5,30.4H2622.6z"
			/>
		<path class="st5" d="M2515.3,359h-8l-24.7,67.1h10.1l5-14.7h27l5.1,14.7h10.1L2515.3,359z M2500.9,402.4l10.5-30.4l10.5,30.4
			H2500.9z"/>
		<path class="st5" d="M2454.2,359h-8l-24.7,67.1h10.1l5.1-14.7h27l5,14.7h10.2L2454.2,359z M2439.8,402.4l10.5-30.4l10.5,30.4
			H2439.8z"/>
		<polygon class="st5" points="2601.5,426 2590,426 2570.5,393.3 2559.6,406.6 2559.6,426 2550.2,426 2550.2,359 2559.6,359 
			2559.6,394.1 2587.2,359 2598.7,359 2577.2,385.2 		"/>
	</g>
</g>
<g class="st6">
	
		<image style="overflow:visible;enable-background:new    ;" width="358" height="114" xlink:href="50F5918E4801C5B8.png"  transform="matrix(1 0 0 1 3548.77 1725.26)">
	</image>
</g>
<polygon class="st7" points="3836.9,1563.3 3812.5,1574.4 3785.6,1633.2 3816.7,1649.2 3855.2,1639.7 3854.3,1585.4 "/>
<path class="st7" d="M3664.4,1341c0,0-8.1,40.1-3.5,64.8s15.3,51.3,22.7,54.6s17.3-4.7,27.3-11.3s30-12,36.6-12.7s26-13.3,24.7-16
	s-8.4-7-10.4-17.4s-1.8-26.7-1.8-26.7l3.6-14.2l-62.5-22.7L3664.4,1341z"/>
<path class="st8" d="M3954.1,1418.1c-2-0.3-62.6-43.2-63.6-44.1s-4.6,1.5-9,4.4c-0.3,0.2-0.6,0.3-0.9,0.3c-5.7,0.6-24.9-15.1-62-3.2
	c-34.8,11.2-43.4,36.8-49.4,41.8c-0.6,0.6-1.4,0.9-2.3,0.8c-6.6-1.2-77.4,41.3-91.1,33.3c-18.4-10.8-23.1-144.6-23.1-147.8
	s-4.4-7-8.8-9.5s-30.6-49.8-31.6-57.3s-43.7-59-49.6-66.1s-12.1-22.1-12.9-28.4s4.4-11.9,14.1-14.8s29.1,7,42,13.6s17,3.6,20.4,9.2
	s17,15.6,22.6,20.4s37.4,5.1,45.9,5.8s40.9,22.7,40.9,22.7l51.2,18.3c0,0,27.8,19.9,34.8,23.1s20.4,8.4,34.6,30.7
	s67.2,60.1,69.4,61.6s-1.3,9.1,1.1,9.8s9.3,5.9,20.5,18.9s32.4,26.8,35.5,40S3956,1418.4,3954.1,1418.1z"/>
<path class="st9" d="M3753,1170.1c0,0-12.6-7.3-8-17.1s2.1-13.3,3.6-20.9s14.1-28.6,23.9-28.6s27.5-4,33.3-1.2s10,6.5,10,2.8
	s-6.7-12.2-1.4-27s11.1-28.6,5.7-42.1s-18.5-35.3-44.8-27.3c0,0,10.1-18.8,34.3-15.1s36.4,19.5,37,26.2s5,29.3,5.4,34
	s2.4-27.9-1.4-35c-2-3.9-4.2-7.6-6.7-11.1c0,0,19.5,16.2,19.2,38.7c-0.3,22.5-1,41.4-4.7,46.1c2,0.2,3.9-0.8,4.9-2.6
	c1.8-3.1,5.3-8.5,5.3-6.2s-3.3,11.8-8.1,15.3s-15.2,5.8-21.4,4.4s-16.2,2.9-15.4,6s22.8,10.6,24,25.6s7.2,27.1-8.6,27
	S3753,1170.1,3753,1170.1z"/>
<path class="st7" d="M3733.6,1213.3c0,0-5.7-9.7,2.2-14s18-18.7,17.1-29.2c1.3-4,1.5-8.2,0.4-12.3c-1.8-6.4,0.7-22.6,5.5-21.5
	s6.6,11.2,8.3,11.2s11.9-2,15.1-6.1s11.9-19.8,21.9-17.1s21.1,14.7,26.3,15.8s13.4,7.2,12.5,14.7s-10.1,25.5-14.7,29.4
	s-6.8,6.4-6.8,10.8s-8.6,11.4-15.6,13.4s-19.3,9.4-21.7,10.5S3745.9,1221.7,3733.6,1213.3z"/>
<path class="st7" d="M3617.3,1209.5c0,0-18.9-14.8-27-16.5s-4.7-21.6,7.1-23.3s23.6-0.3,26.3,4.4s13.8,28.3,22.9,36.8
	s20.9,18.6,20.2,25.3s-9.1,25-13.2,24.6s-6.4-0.7-6.4-0.7s-3.7,5.1-7.8,3s-3.4-7.8-2.7-10.8s-6.1-3-6.7-5.4s0.8-3.8-2-4.8
	s-6-8.9-2.6-11l3.3-2.2L3617.3,1209.5z"/>
<path class="st7" d="M3983.2,1404.9c0,0,24.9,23.8,33.9,25.1s24.6-1.9,27.5-1.1s15,19.8,15.5,23s-8.8,13.1-14.7,15.2
	s-6.9,5.6-9.9,5.3s-16-10.2-24.3-12.8s-14.2-15-17.6-18.2s-18.2-16-23.2-18.2c-2.9-1.2-5.5-3.1-7.5-5.6
	C3962.9,1417.8,3983.4,1411.9,3983.2,1404.9z"/>
<g>
	<defs>
		<path id="SVGID_5_" d="M3772.2,1420.4c0,0,37.8,37,24.6,76.1s-51.2,78.2-51.2,82v19.8l77.6-28.6c0,0,10.5,35.3,6.5,39.3
			s-22.9,0.6-22.9,0.6s12.7,19.2,9.9,39.6c0,0-62.4,15.8-67.4,18.5s-20.6,27.9-42.8,26.4s-24.9-6.1-24.9-6.1s-42.8,3.1-44.3,0.8
			s-21.8-18-19.5-32.1s29.6-78.3,34-86s25-40.5,25-43.1s7-46.4,3.7-51.9s-9.2-13.6-5.1-23.2c0,0,5.7,12.6,14.2,9
			s29.3-17.2,38.2-20.2c6.5-2.1,13.1-3.7,19.8-4.8C3747.5,1436.4,3759.1,1436.5,3772.2,1420.4z"/>
	</defs>
	<clipPath id="SVGID_6_">
		<use xlink:href="#SVGID_5_"  style="overflow:visible;"/>
	</clipPath>
	<g class="st10">
		<rect x="3565" y="1388.8" class="st11" width="328.6" height="407.8"/>
	</g>
</g>
<path class="st12" d="M3744.1,1579.3l-16.6,27.1c0,0,89.4,4.3,95.3,4.3s9.2-1.8,7.6-11.2s-7.1-29.8-7.1-29.8l-77.6,28.6
	L3744.1,1579.3z"/>
<path class="st13" d="M3826,1619c0,0,0-23.4-0.6-26.4s-1.9-12.3,2.7-12s35.7,17.4,45.2,18s51.2,10.9,55.6,18s3,14.2-2.2,14.4
	s-14.2-6.3-25.1-4.4s-18,7.6-22.6,7.6s-20.4,15.3-25.6,14.7s-11.4-6-11.4-6s6.8-3.8-1.4-11.7C3836.1,1626.8,3831.2,1622.7,3826,1619
	z"/>
<path class="st14" d="M3828.2,1580.5c0,0,0.1-11,6.4-10.8s45.5,17.4,53.6,20.4s49.2,18.2,48.6,25.3c-0.3,4.1-2.5,7.8-5.9,10.1
	c0,0,5.5-9.7-14.2-16s-51.8-12.8-51.8-12.8L3828.2,1580.5z"/>
<path class="st13" d="M3838.8,1569.1c0,0-4.6-4.1-1.9-5.7s4.8-3.1,3.4-5s-10.8-19.1-1.4-22.2l117.4,12c0,0-27.7,6.2-40.6,15.8
	s-9.1,13.4-16,13.4s-12-0.5-13.9,4.3s-5.5,6-5.5,6L3838.8,1569.1z"/>
<path class="st14" d="M3838.8,1536.1c0,0,1.4,6.4,32.3,6.9s77.9,2.6,81.5,4.8s7.6-3.1,5-7.9s-11-15.8-29.9-17s-31.3,2.9-44,1.9
	s-33.9-4.6-38-1.9S3837.1,1528.2,3838.8,1536.1z"/>
<path class="st15" d="M3881.5,1378.3l-0.9,0.3c-5.7,0.6-24.9-15.1-62-3.2c-34.8,11.2-43.4,36.8-49.4,41.8l-2.3,0.8
	c0,0,48.4-64.2,75.6-67.4S3881.5,1378.3,3881.5,1378.3z"/>
<g class="st6">
	
		<image style="overflow:visible;enable-background:new    ;" width="410" height="122" xlink:href="50F5918E4801C5B9.png"  transform="matrix(1 0 0 1 1071.77 1910.26)">
	</image>
</g>
<path class="st7" d="M1284.4,1113.8c0,0,7.5,53.7,3,65.1s-19.8,28.9-20.2,36.5s-0.4,16.7-0.4,16.7s7.4-12.5,34.5-17.6
	c0,0,9-2.3,8-11.2s-10.7-14.7-4.9-19.8s12.1-2.8,14.5-6.9s18.9-10.7,25.5-3.2s14.1,16.1,14,20.6s0.6,3.3,0.6,3.3s42-11.2,41.3-16
	s-34.7-100.5-52.1-106.7c0,0-25.7-1-28.8-2.8s-19.8-24.9-20.5-27.2s-5.1-12.8-0.5-12.6s6.2,7.2,8.7,3.6s22.3-16.2,25.9-15.4
	s20.9,4.9,34.4,29.1s55.6,82.4,55.6,82.4s35,51.5,25.5,65.4s-72.1,56.4-72.1,56.4s15.5,71.3,1.6,78.7s-8.6,3.3-8.6,3.3
	s11,34.3,24.9,53s9.8,20.8,9.8,20.8s-11,21.6-32.6,24.9s-31.4,9.3-99.8,5.7c0,0,0.4-27.2-4.3-33s-52.9-51-67.4-60
	s-26.1-56.1-25.2-67.1s0-17.9,9.5-32.2s19.5-33.6,19.5-46.3s-4-27.2-4-27.2s-13-4.5-6.9-25.6c0,0,3.2-9,10.3-1.8l4.8,18.5l-2.3-31
	l7.4-23.1l18-12.1l35.8-2.4C1266.7,1096.7,1280.4,1103.4,1284.4,1113.8z"/>
<path class="st16" d="M1207.8,1165.3c0,0,0,0.9,3.1-22.3s12.1-35.8,28-40.9s32.6-1.8,39.1,3.8s6.4,7.8,6.4,7.8s-7.4-19.7-24.2-23.2
	s-47.5-3.8-52-0.8s-16.1,25.2-21.3,27.8s-36.2,32.5-41.1,47s-3.7,30.1-1.8,27.8s1.4-20.9,5.7-26.6s5.3-5.3,5.3-5.3s-8,19.6-4.9,32.7
	s9.3,29.9,2.8,38.7s-14.5,21.8-12.6,31.7s8,18.7,11.8,21c0,0-6.1-20.3-2.3-27.1s15.7-20.6,16-26s-3.8-27.5,0.8-34.4
	c0,0,2.3,26.4,3.8,29.4s-9.6,25.6-9.6,32.1s-6.9,28.3,6.9,39l13.8,10.7c0,0-11.5-22.9-6.1-42.1s31.5-44.8,27.9-71.4
	s-3.6-20.7-3.6-20.7s-10.4-3.1-8.1-20.2s11.5-7.3,11.5-7.3L1207.8,1165.3z"/>
<path class="st17" d="M1184.3,1247.7c0,0,31.3-2.9,61.9,13.2s93.9,26,93.9,26v-25c-7-4.9-13.5-10.3-19.7-16.2
	c-9.8-9.5-38-19.3-47.1-19.3l-6.4,5.6c0,0,25.1,13.4,12.4,18.3s-40.8-6.3-54.5-11.2s-29.2-5.6-32-4.6S1184.3,1247.7,1184.3,1247.7z"
	/>
<path class="st18" d="M1337.7,1223.2l2.4,38.9c0,0-20.8-16.9-25.5-21.7s-36.2-14.4-41.3-13.8c0,0,15.2-13.8,28-12
	S1309.9,1233.5,1337.7,1223.2z"/>
<path class="st17" d="M1369.4,1335.6l5,13.4c0,0,59.7,75.1,40.4,89.7c-12.6,9.5-133.4-0.8-146.2,6.3c-6.9,3.8-7.9-22.9-10.3-35.6
	l-67.9-75.7c0,0,20.5,16.4,30.4,6.5s16.6-18.2,16.6-18.2S1310.3,1342.4,1369.4,1335.6z"/>
<g>
	<defs>
		<path id="SVGID_7_" d="M1271.7,1440c0,0-15.1,6.8-15.1,27.3c0,0-0.9,9.4-8,12.9s-0.9,35.7-1.3,45.9s-6.2,55.7-8.5,58.4
			s-7.1,3.1-8,19.2s-10.7,46.3-17.8,53s-10.7,17.4-10.7,19.6s-47.2,43.2-53.5,57.5s-29,51.7-32.5,54.8s-5.3,9.4-5.3,14.7
			s-3.6,9.4-6.2,18.3s-7.1,12-7.1,12l33.4,8.5l36.1-37c0,0,111-114.1,123.9-128.4s78.3-121.2,78.3-121.2s24.2,49.9,55.4,92.3
			c0,0,11.8,23,13.8,37s10.1,5.9,9.4,13.6s-8.4,18.9-8.4,24.5s0.7,41.6,4.2,53.5s0.3,32.2-2.1,36.3s-4.2,9.4-1,14.3
			c1.9,3,4.2,5.8,6.6,8.4h49.3c0,0,10.1-48.6,10.5-74.8s9.1-79.7,8-83.9s-5.9-4.6-5.2-9.1s1.4-14,0.3-17.1s-16.6-98-36.7-133.8
			s-34.3-57.4-34.3-57.4l-2.2-22.4c0,0-2.9-4.8-2.9-7.8s-10.6-13.7-17.2-16.3c-4.1-1.6-8.3-2.7-12.6-3.4c0,0-5.5,24.7-51,28.4
			C1326,1440,1298.8,1440.7,1271.7,1440z"/>
	</defs>
	<clipPath id="SVGID_8_">
		<use xlink:href="#SVGID_7_"  style="overflow:visible;"/>
	</clipPath>
	<g class="st19">
		<rect x="1079.6" y="1357.4" class="st20" width="478.1" height="593.2"/>
	</g>
</g>
<path class="st1" d="M1130.8,1842.2c0,0-35.7-12.3-41.9-10.5s-17.3,5.8-21.3,5s-2.5,25.3-2.5,33.2s-3.2,35.4-5.1,41.9
	s-4,22.8,0.7,27.4s14.8,9.4,28.2,4.7s18.1-10.8,18.1-10.8s2.2-44.4,10.8-55.2s15.2-18.4,15.2-22S1130.8,1842.2,1130.8,1842.2z"/>
<polygon class="st21" points="1447.1,1835.5 1447.1,1869.2 1472.3,1894.3 1496,1849.6 1496.4,1835.5 "/>
<path class="st1" d="M1468,1879.5c0,0-16.5-24.7-25.4-21.4s-7,20.7-6.8,24.3s0,45.4,0,45.4s6.3,6.3,23.7,7.4s32.8,8.5,37.3,12.3
	s50.6,0.6,52-2.3s-22.2-28.2-26.2-30.7s-20.2-25.7-20.6-29.2s-1.3-13.7,1-17s3.8-15.3-2-18.2s-14.5-8.2-17.6-6.6s-8.8,3.7-10.4,9
	S1468,1879.5,1468,1879.5z"/>
<path class="st22" d="M1237.4,1322.1c0,0,36.3,59.3,14.5,62.4s-56.1-47.4-56.1-47.4S1222.3,1352.7,1237.4,1322.1z"/>
<path class="st23" d="M2421.5,1693.4c0,0-10.9,4.9-19.4,3.9s20.1,15.5,19.4,7S2421.5,1693.4,2421.5,1693.4z"/>
<path class="st23" d="M2979,1646.2c0,0,12.8-0.1,16.4-3.8c1.7-1.7,3.3-3.6,4.8-5.6c0,0-3.9,25-10.2,23.7S2979,1646.2,2979,1646.2z"
	/>
<g class="st6">
	
		<image style="overflow:visible;enable-background:new    ;" width="345" height="112" xlink:href="50F5918E4801C5BF.png"  transform="matrix(1 0 0 1 2957.77 2278.26)">
	</image>
</g>
<g class="st6">
	
		<image style="overflow:visible;enable-background:new    ;" width="346" height="112" xlink:href="50F5918E4801C5BA.png"  transform="matrix(1 0 0 1 2728.77 2278.26)">
	</image>
</g>
<path class="st7" d="M3337.6,1693.9c-6.8-14.9-12.6-34.7-23.7-63.5s-32.6-22.1-55.9-24.2s-29.6-17.2-32.3-22.3s-0.6-22.9-0.6-22.9
	l3.3-2.7c3.3-2.7,4.2-22.7,3-26.3s-7.2-0.6-7.2-0.6s-6.6-1.5-6.6-16.9s-16.3-16-28.1-20.8s-33.2,12.7-38.9,23s4.5,27.2-4.4,29.9
	s11.3,25,11.3,25c10,27.8,24.5,29.3,24.5,29.3c0.9,12.4-8.6,14.7-12.2,19.1s-28.5,16.6-46.6,24.5s-31.7,40.9-33.2,46
	s-13,20.5-32,41.4s-35.7,16.4-39.3,16.1s-1.6-11.8-1.1-19s-0.8-5.7-5.5-15s-6.1-5.5-18.4-3.5s-22.4,19-25.8,26.6s14.2,25,21.3,27.6
	s16.5,6.9,32.9,18.3s35-0.3,37.3-1.9s31.1-30.1,39.1-36.9s34.2-42.4,34.2-42.4c11.1-1,11.4,19.7,12.5,27c4.1,26.8,5.6,42.2-1.4,53.7
	c-5.3,8.7-31.7,25.7-31.7,25.7s30.3,21.6,50.8,36.1c30.2,21.4,84.2,22,84.2,22s10-36.5,13.9-48.5c4.4-13.4,14.9-40.4,14.9-40.4
	s58.7,8.7,72.6-2.3S3344.4,1708.8,3337.6,1693.9z M3289.9,1746.9c0,0,3.1-23.7,3.2-32.1c0.1-7.2-2.2-30.3-2.2-30.3
	c4.2,2.6,22.7,51.8,22.4,55.4C3313,1743.2,3289.9,1746.8,3289.9,1746.9L3289.9,1746.9z"/>
<g>
	<defs>
		<path id="SVGID_9_" d="M3289,1748c0,0-68,5.7-81,1.2s-23.1-9.8-28.5-7.8s-2.7,5.2-5.5,5.2s-15.2-2.2-15,1.5s3.2,3.2,3.3,5.2
			s-0.8,7.3,2,9.3s2,3.5,2,3.5l-53.6,41.8c0,0,31.2-57.6,31.9-67.1c0.4-5.4,0.2-19.1-0.7-21c-5.8-12.8-12.6-12.1-19.6-5.5
			c-5.4,5.1-35.7-23.7-34.9-29.2c5.3-38.6,65.9-56,65.9-56l13.3-7.1c0,0,38.5,63.7,47.4,59.7c17.7-7.9,20.2-83.5,23-82.8
			c11.7,3.2,35.8,4.4,50.9,7.1c10.9,2,19.8,14.3,24.6,24.2c9.2,18.6,21,45.3,24,51.1c4.6,8.6-37.5,12.6-39.1,20.3
			c0,0-5.7-4.9-6.5,13.2C3292.8,1720.2,3289,1748,3289,1748z"/>
	</defs>
	<clipPath id="SVGID_10_">
		<use xlink:href="#SVGID_9_"  style="overflow:visible;"/>
	</clipPath>
	<g class="st24">
		<rect x="2976.4" y="1575.2" class="st25" width="441" height="457.3"/>
	</g>
</g>
<path class="st26" d="M3224.3,1544.4c0,0-5.5-14-9.7-16.2s-8.3-21-13.4-23s-20.4-5.7-29.3-2.4s-19.2,14-20.5,18.9s0.8,14.3,0.8,19.4
	c0.2,3.8,0.9,7.5,2.1,11.1c0,0-9.8-17.8-10.4-22.1s-2.8-24.7,10-35.1s12.8-15.6,30.2-13s25.7,5.6,29.9,12.1s11.2,19.7,11.2,23.3
	S3224.3,1544.4,3224.3,1544.4z"/>
<path class="st27" d="M3112.1,1808c0,0,80.1,55.8,135,58.1c0,0-4.7,22.6-11.7,28.1c0,0,2.3,10.8,0.3,17.5c0,0,5.2,2.6,6.1,12.5
	s22.8,68.8,23.3,76.2s24.2,111.6,8.8,128.4s-58,4-58,4l-63.4-18.8c0,0-12.9,74.8-12.9,91.2s6.9,51,12.9,69.9s20.3,47.6,5,40.1
	s-30.7-39.6-38.7-41.1s-24.3-2.5-28.2-15.4s-5.4-25.8-4-56.5s3.5-46.1,0-51.5s-10.3-28.8-11.9-50.5s-2.4-24.6-7.8-26.2
	s-39.3-22.7-39.9-25.9s28.9-48.2,40.1-51.9c0,0-3.3-89.8,0.3-107.5S3081,1831.7,3112.1,1808z"/>
<polygon class="st28" points="3152.1,2021.7 3169.9,2119.8 3152.6,2113.9 "/>
<path class="st29" d="M3095.5,2266.2c0,0-4.3,2.6-5.2,9.5s-4.8,47-1.4,53.4s36.7,11,43.6,6s9.5-29.1,6.2-37.2c0,0-10.3-21-19.7-23.9
	S3096.2,2269.1,3095.5,2266.2z"/>
<path class="st29" d="M3067.4,1996.1l-0.7-31.7c0,0-20.1,10.1-29.1,11.7s-63.7,22.4-59.8,33.5s7.3,12.8,15.1,10.6s21.8-9.5,34.1-3.9
	s16.8,5.6,16.8,5.6L3067.4,1996.1z"/>
<path class="st18" d="M3275.9,1777.2l-4.5,15.9c0,0-41-7.7-63.2-6.8s-35.5,2.1-41.4-14.5l-0.3-5.7c0,0,4.8,14.3,13.6,13.5
	s11.2-6.2,31.1-5.2S3275.9,1777.2,3275.9,1777.2z"/>
<path class="st27" d="M3275.9,1777.2l-29.5,93.2c0,0-48.2-7.1-75.2-26.2c-19.5-13.8-57.1-16.9-63.1-33.6l58.2-44.5
	c0,0,4.8,14.3,13.6,13.5s11.2-6.2,31.1-5.2S3275.9,1777.2,3275.9,1777.2z"/>
<path class="st30" d="M3157.5,1571.4c0,0-3.3,25.6-12.7,32.1s6.4,27.4,6.4,27.4s27.3-11.1,30.4-25.3l0.4-4.9
	C3182,1600.8,3165.6,1597.5,3157.5,1571.4z"/>
<path class="st7" d="M2844.6,2274.7c0,0,68.8,46.5,82.8,47.5s58.6,17,53,5.9s-33.4-19.6-39.3-24.6s1-14.4-4.9-17.7
	s-23.6,0.7-28.2-1.6s-40.9-45.5-48-44.5S2844.6,2274.7,2844.6,2274.7z"/>
<path class="st7" d="M2777.1,2266.5c0,0,12.4,15.7,12.4,25.5s-15.4,42.6-14.7,51.7s18.3,15.7,28.5,4.3s20-26.9,16.1-33.7
	s-8.2-22.3-8.2-33.7s1-41.6,1-41.6L2777.1,2266.5z"/>
<path class="st31" d="M2787.5,1905.3c0,0-10-27.1-19.1-22.9s-26.2,14.6-20,25.8s19.6,21.2,19.6,27.9s-12.9,52-12.9,70.4
	s-6.2,57.4-13.3,59.1s39.8,37,67.7,26.6s40.5-4.9,40.1-22.4s-0.8-8.3-0.8-8.3s-14.7-13.1-5.4-40c11.4-32.9,46.2-47,46.2-47
	s-16.2,13.3-17.9-0.4c-1-8.2-0.1-16.5,2.6-24.2L2787.5,1905.3z"/>
<path class="st7" d="M2793.9,1893.6c0,0-2.8,15.1,1.3,21.4s6.1,6.6,6.1,6.6s-2,35.1-1.5,36.8s16.6,6.8,30.8-3.8s39.6-23.7,39.6-37.6
	s0.5-43.2-13.4-45.4S2793.9,1893.6,2793.9,1893.6z"/>
<path class="st26" d="M2851.6,1874.9c0,0-31.2,34.1-48.7,26.2s-12.9-31.4,4.4-38.6s30.2-17.1,45.8-5.2s20,18.8,21,32.7
	s15.8,47.6,5,56.7s-43.1,4.4-43.1,4.4s29.2-24,27.5-46.3S2851.6,1874.9,2851.6,1874.9z"/>
<path class="st23" d="M2835.1,1951.1c0,0-26.8,2.7-33.8-29.6c0,0,3.5-17.9,1.7-20.5s-9-7.5-9-7.5s-4.7,17.2,4.8,26.8l2.3,3.2
	l-1.3,34.9C2799.7,1958.4,2818.1,1967.5,2835.1,1951.1z"/>
<path class="st26" d="M2884.6,1979.4c0,0-24.4,68.6-20.3,76.5s-15.7,5.6-15.7,5.6s-18.1-15.8-9.7-33.2
	C2846.8,2012.2,2865.1,1982.3,2884.6,1979.4z"/>
<path class="st32" d="M2767.5,2086c0,0,4.9,87.9,9.4,97.4c0,0-32.4,41.9-9,74.8s43.9-11,43.9-11s8,31.4,19.9,30.9
	s41.4-21.4,28.4-38.4s-18.9-8.5-21.9-24.4s-3.5-26.9-6-31.9s33.4-49.8,33.4-60.8s4.2-44.8-16.9-48.2
	C2848.7,2074.3,2815,2093.3,2767.5,2086z"/>
<path class="st7" d="M2874.2,1949.8c0,0,69-50.8,76.8-52.3s37.1-3.8,37.1-0.8s-9.7,5.1-16.4,5.1s42.3,18.2,37.5,20.4
	s-24.2,9.2-30.9,4.4s-8.3-8.6-22.8-4.5s-71.1,57.2-71.1,57.2S2859,1989.9,2874.2,1949.8z"/>
<path class="st7" d="M2768.4,1882.5c0,0-7.4-14.8-7.7-19s-3.8-16.9-8.7-21s-19.9-24.1-20-34.8s18.8-24.1,18.8-28.6s-6-21-11.2-20.9
	s-10.6,13.3-14.8,17.3s-6.2,4.4-6.2,4.4s-0.7-10.6-3.3-8.8s-3.9,8-3.5,14s1.5,19.1,5.5,25.8s13.5,47.1,14.9,51s13.3,37.7,15.3,38.4
	C2747.4,1900.2,2764.3,1882.8,2768.4,1882.5z"/>
<path class="st28" d="M2776.9,2183.3c0,0,32.1-57.6,28.4-64S2776.9,2183.3,2776.9,2183.3z"/>
<path class="st23" d="M2999,1696.2c0,0,17,2,20-7.3c0,0-0.8,12.3-7.2,14S2999,1696.2,2999,1696.2z"/>
<g class="st6">
	
		<image style="overflow:visible;enable-background:new    ;" width="389" height="131" xlink:href="50F5918E4801C5BB.png"  transform="matrix(1 0 0 1 2015.77 2288.26)">
	</image>
</g>
<g class="st6">
	
		<image style="overflow:visible;enable-background:new    ;" width="389" height="131" xlink:href="50F5918E4801C5B6.png"  transform="matrix(1 0 0 1 1722.77 2288.26)">
	</image>
</g>
<path class="st33" d="M2230,1541.4c0,0,2.3-37.9-34.4-34.8s-52.1,32.1-65.7,61.8l-2.7,44.4l89.4,102.4l50.4-53.8l-5.1-52.1
	l-38.5-27.2L2230,1541.4z"/>
<path class="st7" d="M2229.8,1575.7c0,0,7.3,2.7,7.5-0.8s-7.6-33.9-9.5-39.9s-8.6-25.7-34.9-25.2s-37.5,25-29.3,52.5
	c0,0-10.4-3.4-8.7,6.7s15.3,18.5,17.9,23.7s8.5,16.5,7.8,29c0,0-5.9,4.3-12.8-1s-25.1-25.6-45-36.9c0,0-43.8-45-49.1-52.7
	s-12.2-22-27.1-35.5s-57.3-62.6-60.3-64.6s-32.8,0-39.4-2.7s-21.9-24.5-26.6-23.4s10.5,16.8,11,17.7s-26.8-1-23.7,4
	s22.5,3.4,27.5,5.7s11.3,4.6,8.4,7.6s-11.9,2.6-11.7,6.2s1.2,4.1,17,4.1s19.1,0.9,23.7,4.5s50.3,68.8,57.3,75.1s20.2,21.5,20.2,21.5
	s22.8,42.4,34.5,54.1s44.9,47.4,47.4,56.6s9.2,28.8,10.8,35.7s10.7,50.3,7.1,70.7s-24.9,43.4-24.9,43.4l44.4,17.6l69.6,1.1
	c0,0,30.5-79.9,33-83.4s11-72.8,11-80.5s4.6-33.2,14.2-50.7s19.5-47.5,27.8-87.2s17.3-60.9,17.3-60.9s14.8-50.3,18.2-51
	s13.6-7.6,20.8-4.2s16.1,15.9,18.9,15s2.5-7.6-0.5-10.6s-16.8-11.3-15.9-12.7s7.4-10.8,11.5-10.8s34,1.2,33.3-1.9s-10.5-4.7-18-4
	s-9,0-9,0s17.1-14.2,16.5-15.5s-3.6-2-7.1,0.2s-6.9,5.6-6.8,4.3s2-5.9,0.3-5.9s-13.7,13.4-16.7,13.4s-30.8,1.7-38.1,7.7
	s-10.2,8.4-13.7,16.5s-35,72.4-38.9,81.1s-13.1,49.2-15.4,59.5s-6,24.2-20.9,42.3s-20,27.1-20,27.1h-7.8
	C2232.8,1618.2,2227.1,1584.3,2229.8,1575.7z"/>
<path class="st13" d="M2173.3,1623.5c0,0-57-75.9-69.7-2.6c-1.9,11.2,46.6,63.9,36.9,71c0,0,9.8,37,9.4,51.6c0,0,0.7,43-22.5,71.2
	c-10.9,13.3,35.8,37.9,48.4,40.3c31.4,6.1,64.5-24.2,64.5-24.2s68.5-132,49.2-164.3c-2.9-4.9,10-40.8,19.6-73.3
	c3.4-11.4-31.9-12-37.4-12.6c-5.7-0.7-17.2,14.8-30.3,37.8h-7.8c0,0,4.7,39.9-6.6,45.9s-15.4-6.6-20.8-15s-24.9-27.3-24.9-27.3
	L2173.3,1623.5z"/>
<path class="st32" d="M2125.5,1811.9c0,0,34.6,17.6,44.4,17.6s69.6,1.1,69.6,1.1s84.4,3,87.8,37.1s-22.6,54.7-28,67.6
	s-43.7,66.3-47.1,84.7s-5.5,36.2-10.2,36.2s-30.8-17.6-32.2-32.3c0,0-4.7,121.2-8,143.4s-11.1,67.9-7.8,85.2c0,0-32.9,2.8-41.2-13.4
	c0,0,3.3-47.9,0-55.1c-7.6-16.2-9.3-34.5-5-51.8c6.1-25.6,10.6-65.7,8.4-99.7s-6.1-89.6-6.1-89.6s-56.2-15-56.8-50.7
	S2106.2,1825.5,2125.5,1811.9z"/>
<path class="st34" d="M2209.8,2018.4c0,0-17.1-7.3-22.9-4s-16.8,9.8-11.9,27.2s8.9,14.7,8.2,25.4s-3.1,31.2-1.2,43.1
	s11.3,38.5,31.2,35.2s11.6-25.1,11.6-25.1s-1.8-13.8,3.4-20.5s13.4-22.6,13.4-24.8s-1.5-14.7-1.5-14.7S2208.5,2046.9,2209.8,2018.4z
	"/>
<path class="st34" d="M2194.4,2255.3c0,0-14.5,7.1-22.8,2.1s-20.3-14.9-23.2-14.1s-26.9,16.6-25.3,19.5s7.9,23.2,17,26.1
	s22.4,12.4,24,19.9s18.7,23.6,29,23.6s26.1,2.1,23.6-6.6s-24.5-41.9-24-48.1S2202.7,2255.3,2194.4,2255.3z"/>
<path class="st35" d="M2238.6,1929.4c0,0-48.3,20.3-88.7,13.7c0,0,11.8,10.1,25.8,12.5s29.1,6.2,32.2,10.1s11.1,20.8,6.4,42.4
	L2238.6,1929.4z"/>
<path class="st7" d="M1944.2,1860.7c0,0,9-7,9.2-11.2l0.1-4.2c0,0,5.3,0,6.2-2.6s5.7-20.7,2.5-21.8c-1.9-0.7-4-0.3-5.5,1
	c0,0,4-25.2-4.3-29.5s-28.4-13.3-37.4-10.9s-20.6,13.4-20.6,13.4s-1.8,11.3-3.1,19.4c-0.7,5.6-0.4,11.2,0.8,16.7
	c0,0-7.3-6.9-9.4-3.8s2.7,19.2,6.4,21.2s5.7,3.2,8.5-1.4c0,0,2.9,14.9,9.3,16.8c0,0,2.3,5,1.4,6.9s-2.9-0.3-0.7,4.3
	s5.6,12.8,19.7,11.6s28.5-7.7,26.1-12.9c0,0-6.5-3.1-7.3-6.3S1944.2,1860.7,1944.2,1860.7z"/>
<path class="st9" d="M1960.3,1820.9c0,0-3.2,4.5-3.4,7s-2.4-7.7-2.6-10.7s-1.6-5.3-1.6-8.4s1.9-13.4,0.1-13.4s-16.9-3-19.2-5.2
	s-14.6,5.1-16.5,3.8s2.2-3.9,0.1-3.9s-14.6,6.6-17.9,9.8s-0.4,8.9-2.3,16.4s-1.3,15-3.8,15s-6.6-0.1-6.6-5.4s0.3-15.7,0.3-24.5
	s4.2-14.4,12.3-18.6s14.5-9.1,27-6.2s23.4,4.1,28.6,14.2s4.3,28,4.3,28L1960.3,1820.9z"/>
<path class="st36" d="M1947.1,2073.9c0,0-4.2,20.8-4.2,30.6s-24.9,42.6-24.9,49.4s-25.4-4.2-35.3-12s-32.7-23.4-36.4-23.4
	s17.1-46.2,17.1-46.2l-34.3,9.9l-10.9-5.2l-8.5-80.8c0,0,24.8-4.8,26.9-5.1s18.2-0.2,18.2-0.2L1947.1,2073.9z"/>
<path class="st9" d="M1953.2,1873.6c0,0-11.2,11.6-21.5,12.1s-18.2-0.8-25.7-13.8c0,0-34.1,10.3-44.9,22s-39.4,29.9-39.4,29.9
	l19.8,20.1l-8.2,2.6c0,0,8.2,17.7,16.4,14.5s22.2-19.9,22.2-19.9s4.8,29.1,1.3,29.6s-9.2,2.4-9.2,4.8s6.6,8.2,6.6,8.2
	s-15.1,4.8-15.9,7.1s7.4,3.7,9.8,9.8s1.3,20.4,4.2,23.8s22,25.9,28.3,29.6s15.3,16.7,26.4,17.2c7.9,0.5,15.7,1.4,23.5,2.6
	c0,0,14.5-24.3,19-36.5s5.3-11.9,5.6-28.8s3.5-26.4,3.3-32.1s-3.7-9.6-1.2-10.3s4.6-7.8,4.6-9.1s5.9-2.7,7.5-1.6s6.4,6.6,6.4,6.6
	l20.7-1.5c0,0,3.2-9.7,10.9-13.3s11-2.2,11-2.2s-4.5-9.5-8.1-15.2s-20.2-24.1-20.2-24.1S1979.7,1876.2,1953.2,1873.6z"/>
<path class="st7" d="M2034.8,1945.1c0,0,8.6,12.9,7.2,18.9s-13,17.5-21,18.5s-13.2,9-19.7,11.7s-15.5,4.8-15.7,3
	c-0.2-1.2-0.5-2.4-1-3.5c0,0-7.8-1-7.8-3s2.3-3.8,2.3-3.8s-3.8-4.8-3-6.5s9.5-1.2,9-3.5s-7.8-1.8-9.2-2.5s-4.3-6-2-8.3
	s18.5-4.1,18.5-4.1s16.3-3.8,19.8-6.3S2019.1,1943.7,2034.8,1945.1z"/>
<path class="st7" d="M1821.7,1923.8c0,0-1,5.5-8.7,1.2l-7.7-4.3c0,0,7.4-8.9,7.7-12s5.2-10.4,0-11s-14.4-5.2-18.1-4.3
	s-15,11.3-15,20.8s10.1,23,16.2,29.7s12.9,12.6,21.1,10.7s24.2-10.9,24.2-10.9L1821.7,1923.8z"/>
<path class="st7" d="M1840.2,2051.8c0,0-7.7-53.1-25.8-56s-33.8,9.7-33.8,14.9s5.6,69.7,7.2,80.1s9.7,39.4,9.7,43.9
	s34.2,12.1,29.8,4s-8.5-10.9-8.5-29.4s-3.3-26.5-0.6-32.4s1.8-33.3-3.8-35.3c0,0,5.7,1.9,8.4,1.9s10.9,8.8,14.3,9
	S1840.2,2051.8,1840.2,2051.8z"/>
<path class="st37" d="M1840.2,2051.8c0,0,5.6,26.9-11.1,30.4l-10.9-5.2c0,0,5.5-23-3.8-35.3c0,0,6.9,1.7,8.4,1.9s2.6,1.6,4.3,2.4
	S1840.2,2051.8,1840.2,2051.8z"/>
<path class="st7" d="M1882.6,2142c0,0-1.9,24.5,3.7,36.2s16.7,76.2,16.7,84.6s3.9,13.9,13.4,15s6.7,8.4,8.3-13.9s7.2-50.1,6.1-61.2
	s-14.5-28.9-14.5-37.3v-8.4C1916.4,2157,1884.5,2146.4,1882.6,2142z"/>
<path class="st9" d="M1797.5,2134.7c0,0-4.7,12.2-8.2,12.7s-31,16.4-35.7,28.1s16.4,15.8,28.7,15.2s36.2-16.9,45.6-16.9
	s9.9-21.6,5.8-28.1S1806.3,2138.4,1797.5,2134.7z"/>
<path class="st9" d="M1902,2270.7c0,0-4.7,12.2-8.2,12.7s-31,16.4-35.7,28.1s16.4,15.8,28.7,15.2s36.2-17,45.6-17s9.9-21.6,5.8-28.1
	S1910.8,2274.4,1902,2270.7z"/>
</svg>
